<svg aria-hidden="true" style="position:absolute;width:0;height:0;overflow:hidden" xmlns="http://www.w3.org/2000/svg">
<defs>


<symbol id="globus" viewBox="0 0 24 24">
<path fill-rule="evenodd" clip-rule="evenodd" d="M12 3C7.02944 3 3 7.02944 3 12C3 16.9706 7.02944 21 12 21C16.9706 21 21 16.9706 21 12C21 7.02944 16.9706 3 12 3ZM1 12C1 5.92487 5.92487 1 12 1C18.0751 1 23 5.92487 23 12C23 18.0751 18.0751 23 12 23C5.92487 23 1 18.0751 1 12Z" fill="#282828"/>
<path fill-rule="evenodd" clip-rule="evenodd" d="M1 12C1 11.4477 1.44772 11 2 11H22C22.5523 11 23 11.4477 23 12C23 12.5523 22.5523 13 22 13H2C1.44772 13 1 12.5523 1 12Z" fill="#282828"/>
<path fill-rule="evenodd" clip-rule="evenodd" d="M12 1C12.2809 1 12.5489 1.11816 12.7383 1.32558C15.4031 4.24291 16.9175 8.02885 16.9998 11.9792C17.0001 11.9931 17.0001 12.0069 16.9998 12.0208C16.9175 15.9711 15.4031 19.7571 12.7383 22.6744C12.5489 22.8818 12.2809 23 12 23C11.7191 23 11.4511 22.8818 11.2617 22.6744C8.59689 19.7571 7.08251 15.9711 7.00022 12.0208C6.99993 12.0069 6.99993 11.9931 7.00022 11.9792C7.08251 8.02885 8.59689 4.24291 11.2617 1.32558C11.4511 1.11816 11.7191 1 12 1ZM9.00023 12C9.06877 15.0748 10.1263 18.0352 12 20.4492C13.8737 18.0352 14.9312 15.0748 14.9998 12C14.9312 8.92516 13.8737 5.96485 12 3.5508C10.1263 5.96485 9.06877 8.92516 9.00023 12Z" fill="#282828"/>
</symbol>

<symbol id="arrow__down-solid" viewBox="0 0 12 12">
<path d="M10.4997 2.50001L1.49971 2.50001C1.40859 2.50029 1.31928 2.52543 1.24138 2.5727C1.16348 2.61997 1.09994 2.68759 1.05762 2.76828C1.01529 2.84898 0.995771 2.93969 1.00116 3.03065C1.00655 3.12161 1.03665 3.20938 1.08821 3.28451L5.58821 9.78451C5.77471 10.054 6.22371 10.054 6.41071 9.78451L10.9107 3.28451C10.9628 3.20954 10.9933 3.12172 10.999 3.03061C11.0047 2.9395 10.9853 2.84857 10.943 2.7677C10.9006 2.68684 10.8369 2.61913 10.7587 2.57194C10.6806 2.52474 10.591 2.49986 10.4997 2.50001Z" fill="#282828"/>
</symbol>


<symbol id="eng" viewBox="0 0 24 24">
<mask id="mask0_749_116" style="mask-type:luminance" maskUnits="userSpaceOnUse" x="0" y="0" width="24" height="24">
<path d="M12 24C18.6274 24 24 18.6274 24 12C24 5.37258 18.6274 0 12 0C5.37258 0 0 5.37258 0 12C0 18.6274 5.37258 24 12 24Z" fill="white"/>
</mask>
<g mask="url(#mask0_749_116)">
<path d="M0 0L0.375 1.03125L0 2.10938V3.1875L1.5 5.71875L0 8.25V9.75L1.5 12L0 14.25V15.75L1.5 18.2812L0 20.8125V24L1.03125 23.625L2.10938 24H3.1875L5.71875 22.5L8.25 24H9.75L12 22.5L14.25 24H15.75L18.2812 22.5L20.8125 24H24L23.625 22.9688L24 21.8906V20.8125L22.5 18.2812L24 15.75V14.25L22.5 12L24 9.75V8.25L22.5 5.71875L24 3.1875V0L22.9688 0.375L21.8906 0H20.8125L18.2812 1.5L15.75 0H14.25L12 1.5L9.75 0H8.25L5.71875 1.5L3.1875 0H0Z" fill="#EEEEEE"/>
<path d="M15.75 0V5.0625L20.8125 0H15.75ZM24 3.1875L18.9375 8.25H24V3.1875ZM0 8.25H5.0625L0 3.1875V8.25ZM3.1875 0L8.25 5.0625V0H3.1875ZM8.25 24V18.9375L3.1875 24H8.25ZM0 20.8125L5.0625 15.75H0V20.8125ZM24 15.75H18.9375L24 20.8125V15.75ZM20.8125 24L15.75 18.9375V24H20.8125Z" fill="#0052B4"/>
<path d="M0 0V2.10938L6.14062 8.25H8.25L0 0ZM9.75 0V9.75H0V14.25H9.75V24H14.25V14.25H24V9.75H14.25V0H9.75ZM21.8906 0L15.75 6.14062V8.25L24 0H21.8906ZM8.25 15.75L0 24H2.10938L8.25 17.8594V15.75ZM15.75 15.75L24 24V21.8906L17.8594 15.75H15.75Z" fill="#D80027"/>
</g>
</symbol>


<symbol id="arrow__down" viewBox="0 0 12 12">
<path fill-rule="evenodd" clip-rule="evenodd" d="M2.64645 4.14645C2.84171 3.95118 3.15829 3.95118 3.35355 4.14645L6 6.79289L8.64645 4.14645C8.84171 3.95118 9.15829 3.95118 9.35355 4.14645C9.54882 4.34171 9.54882 4.65829 9.35355 4.85355L6.35355 7.85355C6.15829 8.04882 5.84171 8.04882 5.64645 7.85355L2.64645 4.85355C2.45118 4.65829 2.45118 4.34171 2.64645 4.14645Z" fill="#858585"/>
</symbol>

<symbol id="login" viewBox="0 0 24 24">
<path fill-rule="evenodd" clip-rule="evenodd" d="M4.46447 15.4645C5.40215 14.5268 6.67392 14 8 14H15C16.3261 14 17.5979 14.5268 18.5355 15.4645C19.4732 16.4021 20 17.6739 20 19V21C20 21.5523 19.5523 22 19 22C18.4477 22 18 21.5523 18 21V19C18 18.2044 17.6839 17.4413 17.1213 16.8787C16.5587 16.3161 15.7956 16 15 16H8C7.20435 16 6.44129 16.3161 5.87868 16.8787C5.31607 17.4413 5 18.2044 5 19V21C5 21.5523 4.55228 22 4 22C3.44772 22 3 21.5523 3 21V19C3 17.6739 3.52678 16.4021 4.46447 15.4645Z" fill="#A7A7A7"/>
<path fill-rule="evenodd" clip-rule="evenodd" d="M11.5 4C9.84315 4 8.5 5.34315 8.5 7C8.5 8.65685 9.84315 10 11.5 10C13.1569 10 14.5 8.65685 14.5 7C14.5 5.34315 13.1569 4 11.5 4ZM6.5 7C6.5 4.23858 8.73858 2 11.5 2C14.2614 2 16.5 4.23858 16.5 7C16.5 9.76142 14.2614 12 11.5 12C8.73858 12 6.5 9.76142 6.5 7Z" fill="#A7A7A7"/>
</symbol>


<symbol id="eye" viewBox="0 0 24 24">
<path fill-rule="evenodd" clip-rule="evenodd" d="M2.14074 12C2.25003 12.1889 2.39492 12.4296 2.57441 12.7075C3.03543 13.4213 3.71817 14.3706 4.60454 15.3161C6.39552 17.2264 8.89951 19 12 19C15.1005 19 17.6045 17.2264 19.3955 15.3161C20.2818 14.3706 20.9646 13.4213 21.4256 12.7075C21.6051 12.4296 21.75 12.1889 21.8593 12C21.75 11.8111 21.6051 11.5704 21.4256 11.2925C20.9646 10.5787 20.2818 9.6294 19.3955 8.68394C17.6045 6.77356 15.1005 5 12 5C8.89951 5 6.39552 6.77356 4.60454 8.68394C3.71817 9.6294 3.03543 10.5787 2.57441 11.2925C2.39492 11.5704 2.25003 11.8111 2.14074 12ZM23 12C23.8944 11.5528 23.8943 11.5524 23.8941 11.5521L23.8925 11.5489L23.889 11.542L23.8777 11.5198C23.8681 11.5013 23.8546 11.4753 23.8372 11.4424C23.8025 11.3767 23.752 11.2832 23.686 11.166C23.5542 10.9316 23.3601 10.6015 23.1057 10.2075C22.5979 9.42131 21.8432 8.3706 20.8545 7.31606C18.8955 5.22644 15.8995 3 12 3C8.10049 3 5.10448 5.22644 3.14546 7.31606C2.15683 8.3706 1.40207 9.42131 0.894336 10.2075C0.63985 10.6015 0.445792 10.9316 0.313971 11.166C0.248023 11.2832 0.19754 11.3767 0.162753 11.4424C0.145357 11.4753 0.131875 11.5013 0.122338 11.5198L0.11099 11.542L0.107539 11.5489L0.10637 11.5512C0.106186 11.5516 0.105573 11.5528 1 12L0.105573 11.5528C-0.0351909 11.8343 -0.0351909 12.1657 0.105573 12.4472L1 12C0.105573 12.4472 0.105389 12.4468 0.105573 12.4472L0.107539 12.4511L0.11099 12.458L0.122338 12.4802C0.131875 12.4987 0.145357 12.5247 0.162753 12.5576C0.19754 12.6233 0.248023 12.7168 0.313971 12.834C0.445792 13.0684 0.63985 13.3985 0.894336 13.7925C1.40207 14.5787 2.15683 15.6294 3.14546 16.6839C5.10448 18.7736 8.10049 21 12 21C15.8995 21 18.8955 18.7736 20.8545 16.6839C21.8432 15.6294 22.5979 14.5787 23.1057 13.7925C23.3601 13.3985 23.5542 13.0684 23.686 12.834C23.752 12.7168 23.8025 12.6233 23.8372 12.5576C23.8546 12.5247 23.8681 12.4987 23.8777 12.4802L23.889 12.458L23.8925 12.4511L23.8936 12.4488C23.8938 12.4484 23.8944 12.4472 23 12ZM23 12L23.8944 12.4472C24.0352 12.1657 24.0348 11.8336 23.8941 11.5521L23 12Z" fill="#A7A7A7"/>
<path fill-rule="evenodd" clip-rule="evenodd" d="M12 10C10.8954 10 10 10.8954 10 12C10 13.1046 10.8954 14 12 14C13.1046 14 14 13.1046 14 12C14 10.8954 13.1046 10 12 10ZM8 12C8 9.79086 9.79086 8 12 8C14.2091 8 16 9.79086 16 12C16 14.2091 14.2091 16 12 16C9.79086 16 8 14.2091 8 12Z" fill="#A7A7A7"/>
</symbol>

<symbol id="google" viewBox="0 0 36 36">
<path d="M32.7083 15.0623H31.5V15H18V21H26.4773C25.2405 24.4928 21.9172 27 18 27C13.0297 27 9 22.9702 9 18C9 13.0297 13.0297 9 18 9C20.2943 9 22.3815 9.8655 23.9708 11.2792L28.2135 7.0365C25.5345 4.53975 21.951 3 18 3C9.71625 3 3 9.71625 3 18C3 26.2838 9.71625 33 18 33C26.2838 33 33 26.2838 33 18C33 16.9943 32.8965 16.0125 32.7083 15.0623Z" fill="#FFC107"/>
<path d="M4.73047 11.0182L9.65872 14.6325C10.9922 11.331 14.2217 9 18.001 9C20.2952 9 22.3825 9.8655 23.9717 11.2792L28.2145 7.0365C25.5355 4.53975 21.952 3 18.001 3C12.2395 3 7.24297 6.25275 4.73047 11.0182Z" fill="#FF3D00"/>
<path d="M18.0002 33C21.8747 33 25.3952 31.5172 28.057 29.106L23.4145 25.1775C21.8579 26.3613 19.9558 27.0015 18.0002 27C14.0987 27 10.786 24.5122 9.53798 21.0405L4.64648 24.8092C7.12898 29.667 12.1705 33 18.0002 33Z" fill="#4CAF50"/>
<path d="M32.7083 15.0623H31.5V15H18V21H26.4773C25.8857 22.6623 24.82 24.1149 23.412 25.1782L23.4142 25.1768L28.0568 29.1052C27.7283 29.4037 33 25.5 33 18C33 16.9943 32.8965 16.0125 32.7083 15.0623Z" fill="#1976D2"/>
</symbol>

<symbol id="facebook" viewBox="0 0 36 36">
<path d="M32.8088 1.35844H3.19594C2.18163 1.35844 1.35938 2.18069 1.35938 3.195V32.8078C1.35938 33.8221 2.18163 34.6444 3.19594 34.6444H32.8088C33.8231 34.6444 34.6453 33.8221 34.6453 32.8078V3.195C34.6453 2.18069 33.8231 1.35844 32.8088 1.35844Z" fill="#3D5A98"/>
<path d="M24.322 34.6416V21.7519H28.6476L29.2945 16.7287H24.322V13.5225C24.322 12.0684 24.727 11.0756 26.811 11.0756H29.4716V6.57562C28.1833 6.44135 26.8885 6.37751 25.5932 6.38437C21.7626 6.38437 19.1245 8.71875 19.1245 13.0247V16.7287H14.7988V21.7519H19.1245V34.6416H24.322Z" fill="white"/>
</symbol>


<symbol id="arrow_down" viewBox="0 0 15 15">
<path fill-rule="evenodd" clip-rule="evenodd" d="M3.30806 5.18306C3.55214 4.93898 3.94786 4.93898 4.19194 5.18306L7.5 8.49112L10.8081 5.18306C11.0521 4.93898 11.4479 4.93898 11.6919 5.18306C11.936 5.42714 11.936 5.82286 11.6919 6.06694L7.94194 9.81694C7.69786 10.061 7.30214 10.061 7.05806 9.81694L3.30806 6.06694C3.06398 5.82286 3.06398 5.42714 3.30806 5.18306Z" fill="#8D8D8D"/>
</symbol>

<symbol id="timer" viewBox="0 0 20 20">
<path d="M5 1.66666V6.66666L8.33333 9.99999L5 13.3333V18.3333H15V13.3333L11.6667 9.99999L15 6.66666V1.66666H5ZM13.3333 13.75V16.6667H6.66667V13.75L10 10.4167L13.3333 13.75ZM10 9.58332L6.66667 6.24999V3.33332H13.3333V6.24999L10 9.58332Z" fill="#145EB6"/>
</symbol>

<symbol id="wallet" viewBox="0 0 20 20">
<path fill-rule="evenodd" clip-rule="evenodd" d="M3.75 6.25C3.05964 6.25 2.5 6.80964 2.5 7.5V15C2.5 15.6904 3.05964 16.25 3.75 16.25H16.25C16.9404 16.25 17.5 15.6904 17.5 15V7.5C17.5 6.80964 16.9404 6.25 16.25 6.25H3.75ZM1.25 7.5C1.25 6.11929 2.36929 5 3.75 5H16.25C17.6307 5 18.75 6.11929 18.75 7.5V15C18.75 16.3807 17.6307 17.5 16.25 17.5H3.75C2.36929 17.5 1.25 16.3807 1.25 15V7.5Z" fill="#23B40C"/>
<path fill-rule="evenodd" clip-rule="evenodd" d="M13.6393 1.92002C14.01 1.85033 14.3915 1.86284 14.7569 1.95667C15.1244 2.05105 15.4665 2.22536 15.7588 2.46717C16.0512 2.70899 16.2866 3.01234 16.4482 3.3556C16.6098 3.69885 16.6936 4.07354 16.6937 4.45294V5.62501H15.4437V4.45334C15.4437 4.45327 15.4437 4.45341 15.4437 4.45334C15.4437 4.25796 15.4005 4.06481 15.3172 3.88804C15.234 3.71122 15.1127 3.55494 14.9621 3.43037C14.8115 3.3058 14.6353 3.216 14.446 3.16739C14.2567 3.11877 14.059 3.11253 13.867 3.14912L13.8552 3.15126L3.57415 4.90601C3.2725 4.96478 3.00049 5.12636 2.80458 5.3633C2.60751 5.60163 2.49979 5.90127 2.5 6.21053V8.12501H1.25V6.21114C1.25 6.21108 1.25 6.2112 1.25 6.21114C1.24969 5.61097 1.45878 5.0293 1.84124 4.56676C2.22379 4.10411 2.75579 3.78946 3.3455 3.67708L3.35735 3.67494L13.6393 1.92002Z" fill="#23B40C"/>
<path d="M14.375 12.5C14.1278 12.5 13.8861 12.4267 13.6805 12.2893C13.475 12.152 13.3148 11.9568 13.2202 11.7284C13.1255 11.4999 13.1008 11.2486 13.149 11.0061C13.1973 10.7637 13.3163 10.5409 13.4911 10.3661C13.6659 10.1913 13.8887 10.0723 14.1311 10.024C14.3736 9.97579 14.6249 10.0005 14.8534 10.0952C15.0818 10.1898 15.277 10.35 15.4143 10.5555C15.5517 10.7611 15.625 11.0028 15.625 11.25C15.625 11.5815 15.4933 11.8995 15.2589 12.1339C15.0245 12.3683 14.7065 12.5 14.375 12.5Z" fill="#23B40C"/>
</symbol>


<symbol id="clock" viewBox="0 0 20 20">
<g clip-path="url(#clip0_477_3544)">
<path fill-rule="evenodd" clip-rule="evenodd" d="M10.0007 2.50001C5.85851 2.50001 2.50065 5.85787 2.50065 10C2.50065 14.1421 5.85851 17.5 10.0007 17.5C14.1428 17.5 17.5006 14.1421 17.5006 10C17.5006 5.85787 14.1428 2.50001 10.0007 2.50001ZM0.833984 10C0.833984 4.9374 4.93804 0.833344 10.0007 0.833344C15.0633 0.833344 19.1673 4.9374 19.1673 10C19.1673 15.0626 15.0633 19.1667 10.0007 19.1667C4.93804 19.1667 0.833984 15.0626 0.833984 10Z" fill="#8D8D8D"/>
<path fill-rule="evenodd" clip-rule="evenodd" d="M9.99935 4.16666C10.4596 4.16666 10.8327 4.53975 10.8327 4.99999V9.48496L13.7054 10.9213C14.117 11.1271 14.2839 11.6277 14.078 12.0393C13.8722 12.451 13.3717 12.6178 12.96 12.412L9.62667 10.7453C9.34435 10.6042 9.16602 10.3156 9.16602 9.99999V4.99999C9.16602 4.53975 9.53911 4.16666 9.99935 4.16666Z" fill="#8D8D8D"/>
</g>
<defs>
<clipPath id="clip0_477_3544">
<rect width="20" height="20" fill="white"/>
</clipPath>
</defs></symbol>


<symbol id="out" viewBox="0 0 24 24">
<path fill-rule="evenodd" clip-rule="evenodd" d="M5 4C4.73478 4 4.48043 4.10536 4.29289 4.29289C4.10536 4.48043 4 4.73478 4 5V19C4 19.2652 4.10536 19.5196 4.29289 19.7071C4.48043 19.8946 4.73478 20 5 20H9C9.55228 20 10 20.4477 10 21C10 21.5523 9.55228 22 9 22H5C4.20435 22 3.44129 21.6839 2.87868 21.1213C2.31607 20.5587 2 19.7957 2 19V5C2 4.20435 2.31607 3.44129 2.87868 2.87868C3.44129 2.31607 4.20435 2 5 2H9C9.55228 2 10 2.44772 10 3C10 3.55228 9.55228 4 9 4H5Z" fill="#8D8D8D"/>
<path fill-rule="evenodd" clip-rule="evenodd" d="M15.2929 6.29289C15.6834 5.90237 16.3166 5.90237 16.7071 6.29289L21.7071 11.2929C22.0976 11.6834 22.0976 12.3166 21.7071 12.7071L16.7071 17.7071C16.3166 18.0976 15.6834 18.0976 15.2929 17.7071C14.9024 17.3166 14.9024 16.6834 15.2929 16.2929L19.5858 12L15.2929 7.70711C14.9024 7.31658 14.9024 6.68342 15.2929 6.29289Z" fill="#8D8D8D"/>
<path fill-rule="evenodd" clip-rule="evenodd" d="M8 12C8 11.4477 8.44772 11 9 11H21C21.5523 11 22 11.4477 22 12C22 12.5523 21.5523 13 21 13H9C8.44772 13 8 12.5523 8 12Z" fill="#8D8D8D"/>
</symbol>


<symbol id="summary" viewBox="0 0 24 24">
<path d="M12 1.198L22 9.532V22H2V9.532L12 1.198ZM10 20H14V15H10V20ZM16 20H20V10.468L12 3.802L4 10.468V20H8V13H16V20Z" fill="#8D8D8D"/>
</symbol>

<symbol id="summaryA" viewBox="0 0 24 24">
<path d="M12 1.198L22 9.532V22H2V9.532L12 1.198ZM10 20H14V15H10V20ZM16 20H20V10.468L12 3.802L4 10.468V20H8V13H16V20Z" fill="#145EB6"/>
</symbol>

<symbol id="analytics" viewBox="0 0 24 24">
<path d="M9 17H7V10H9V17ZM13 17H11V7H13V17ZM17 17H15V13H17V17ZM19 19H5V5H19V19.1M19 3H5C3.9 3 3 3.9 3 5V19C3 20.1 3.9 21 5 21H19C20.1 21 21 20.1 21 19V5C21 3.9 20.1 3 19 3Z" fill="#8D8D8D"/>
</symbol>

<symbol id="analyticsA" viewBox="0 0 24 24">
<path d="M9 17H7V10H9V17ZM13 17H11V7H13V17ZM17 17H15V13H17V17ZM19 19H5V5H19V19.1M19 3H5C3.9 3 3 3.9 3 5V19C3 20.1 3.9 21 5 21H19C20.1 21 21 20.1 21 19V5C21 3.9 20.1 3 19 3Z" fill="#145EB6"/>
</symbol>

<symbol id="tools" viewBox="0 0 24 24">
<path fill-rule="evenodd" clip-rule="evenodd" d="M4.79879 0.884006C6.02626 0.392373 7.36785 0.258349 8.66832 0.497442C9.96879 0.736535 11.175 1.33897 12.1473 2.23504C13.1197 3.13111 13.8184 4.28419 14.1627 5.56085C14.507 6.8375 14.4827 8.18555 14.0928 9.44901L18.4868 13.167C18.8826 13.5034 19.2044 13.9181 19.432 14.385C19.6595 14.8519 19.7878 15.3609 19.8089 15.8799C19.8299 16.3989 19.7432 16.9166 19.5542 17.4004C19.3652 17.8842 19.078 18.3236 18.7107 18.6909C18.3434 19.0582 17.904 19.3454 17.4202 19.5344C16.9364 19.7234 16.4187 19.8101 15.8997 19.7891C15.3807 19.7681 14.8717 19.6397 14.4048 19.4122C13.9379 19.1846 13.5231 18.8628 13.1868 18.467L9.46979 14.073C8.20622 14.4631 6.85802 14.4874 5.58122 14.1431C4.30442 13.7987 3.15123 13.0999 2.25511 12.1274C1.359 11.1549 0.756592 9.94853 0.517622 8.64789C0.278652 7.34725 0.412886 6.00553 0.904788 4.77801C1.26279 3.88401 2.38479 3.77101 2.96779 4.40501L6.17079 7.88301L7.61679 7.59501L7.90679 6.14601L4.42679 2.94801C3.79279 2.36501 3.90379 1.24201 4.79879 0.884006ZM6.80579 2.42001L9.56879 4.96001C9.89079 5.25601 10.0348 5.69801 9.94879 6.12501L9.47879 8.47901C9.43037 8.72126 9.31125 8.94374 9.13647 9.11834C8.96169 9.29294 8.73909 9.41183 8.49679 9.46001L6.14679 9.92701C5.93647 9.96883 5.71892 9.95584 5.51507 9.88929C5.31122 9.82274 5.12792 9.70487 4.98279 9.54701L2.43879 6.78501C2.33524 7.64515 2.45686 8.51744 2.79176 9.31645C3.12666 10.1155 3.66335 10.8138 4.34925 11.343C5.03516 11.8723 5.84677 12.2143 6.70459 12.3356C7.56241 12.4569 8.43703 12.3533 9.24279 12.035C9.48717 11.938 9.7558 11.9201 10.0109 11.9838C10.266 12.0475 10.4947 12.1896 10.6648 12.39L14.7148 17.176C14.8719 17.3624 15.0659 17.5141 15.2847 17.6216C15.5035 17.729 15.7422 17.7899 15.9857 17.8002C16.2292 17.8106 16.4723 17.7703 16.6994 17.6818C16.9265 17.5934 17.1328 17.4587 17.3051 17.2863C17.4775 17.114 17.6122 16.9077 17.7006 16.6806C17.7891 16.4535 17.8294 16.2105 17.819 15.9669C17.8087 15.7234 17.7478 15.4847 17.6404 15.2659C17.5329 15.0472 17.3812 14.8531 17.1948 14.696L12.4098 10.646C12.2093 10.4759 12.0673 10.2472 12.0036 9.9921C11.9399 9.73702 11.9578 9.46838 12.0548 9.22401C12.3734 8.41825 12.4772 7.54354 12.3561 6.68559C12.2349 5.82763 11.8929 5.01588 11.3636 4.32989C10.8343 3.64389 10.1358 3.10719 9.33662 2.77238C8.53745 2.43758 7.66501 2.31615 6.80479 2.42001H6.80579Z" fill="#8D8D8D"/>
</symbol>

<symbol id="toolsA" viewBox="0 0 24 24">
<path fill-rule="evenodd" clip-rule="evenodd" d="M4.79879 0.884006C6.02626 0.392373 7.36785 0.258349 8.66832 0.497442C9.96879 0.736535 11.175 1.33897 12.1473 2.23504C13.1197 3.13111 13.8184 4.28419 14.1627 5.56085C14.507 6.8375 14.4827 8.18555 14.0928 9.44901L18.4868 13.167C18.8826 13.5034 19.2044 13.9181 19.432 14.385C19.6595 14.8519 19.7878 15.3609 19.8089 15.8799C19.8299 16.3989 19.7432 16.9166 19.5542 17.4004C19.3652 17.8842 19.078 18.3236 18.7107 18.6909C18.3434 19.0582 17.904 19.3454 17.4202 19.5344C16.9364 19.7234 16.4187 19.8101 15.8997 19.7891C15.3807 19.7681 14.8717 19.6397 14.4048 19.4122C13.9379 19.1846 13.5231 18.8628 13.1868 18.467L9.46979 14.073C8.20622 14.4631 6.85802 14.4874 5.58122 14.1431C4.30442 13.7987 3.15123 13.0999 2.25511 12.1274C1.359 11.1549 0.756592 9.94853 0.517622 8.64789C0.278652 7.34725 0.412886 6.00553 0.904788 4.77801C1.26279 3.88401 2.38479 3.77101 2.96779 4.40501L6.17079 7.88301L7.61679 7.59501L7.90679 6.14601L4.42679 2.94801C3.79279 2.36501 3.90379 1.24201 4.79879 0.884006ZM6.80579 2.42001L9.56879 4.96001C9.89079 5.25601 10.0348 5.69801 9.94879 6.12501L9.47879 8.47901C9.43037 8.72126 9.31125 8.94374 9.13647 9.11834C8.96169 9.29294 8.73909 9.41183 8.49679 9.46001L6.14679 9.92701C5.93647 9.96883 5.71892 9.95584 5.51507 9.88929C5.31122 9.82274 5.12792 9.70487 4.98279 9.54701L2.43879 6.78501C2.33524 7.64515 2.45686 8.51744 2.79176 9.31645C3.12666 10.1155 3.66335 10.8138 4.34925 11.343C5.03516 11.8723 5.84677 12.2143 6.70459 12.3356C7.56241 12.4569 8.43703 12.3533 9.24279 12.035C9.48717 11.938 9.7558 11.9201 10.0109 11.9838C10.266 12.0475 10.4947 12.1896 10.6648 12.39L14.7148 17.176C14.8719 17.3624 15.0659 17.5141 15.2847 17.6216C15.5035 17.729 15.7422 17.7899 15.9857 17.8002C16.2292 17.8106 16.4723 17.7703 16.6994 17.6818C16.9265 17.5934 17.1328 17.4587 17.3051 17.2863C17.4775 17.114 17.6122 16.9077 17.7006 16.6806C17.7891 16.4535 17.8294 16.2105 17.819 15.9669C17.8087 15.7234 17.7478 15.4847 17.6404 15.2659C17.5329 15.0472 17.3812 14.8531 17.1948 14.696L12.4098 10.646C12.2093 10.4759 12.0673 10.2472 12.0036 9.9921C11.9399 9.73702 11.9578 9.46838 12.0548 9.22401C12.3734 8.41825 12.4772 7.54354 12.3561 6.68559C12.2349 5.82763 11.8929 5.01588 11.3636 4.32989C10.8343 3.64389 10.1358 3.10719 9.33662 2.77238C8.53745 2.43758 7.66501 2.31615 6.80479 2.42001H6.80579Z" fill="#145EB6"/>
</symbol>

<symbol id="finance" viewBox="0 0 24 24">
<path d="M9 0C11.314 0 13.456 0.408 15.058 1.109C15.857 1.459 16.567 1.901 17.09 2.443C17.575 2.943 17.935 3.571 17.992 4.299L18 4.5V14.5C18 15.314 17.619 16.01 17.09 16.557C16.567 17.099 15.857 17.541 15.058 17.891C13.456 18.591 11.314 19 9 19C6.686 19 4.544 18.592 2.942 17.891C2.143 17.541 1.433 17.099 0.91 16.557C0.425 16.057 0.0649999 15.429 0.0079999 14.701L0 14.5V4.5C0 3.686 0.381 2.99 0.91 2.443C1.433 1.901 2.143 1.459 2.942 1.109C4.544 0.409 6.686 0 9 0ZM16 12.407C15.6969 12.5886 15.3822 12.7503 15.058 12.891C13.456 13.591 11.314 14 9 14C6.686 14 4.544 13.592 2.942 12.891C2.6178 12.7503 2.30314 12.5887 2 12.407V14.5C2 14.652 2.066 14.876 2.348 15.167C2.634 15.463 3.096 15.775 3.744 16.059C5.038 16.625 6.895 17 9 17C11.105 17 12.962 16.625 14.256 16.059C14.904 15.775 15.366 15.463 15.652 15.167C15.934 14.877 16 14.652 16 14.5V12.407ZM16 7.407C15.6969 7.58863 15.3822 7.75031 15.058 7.891C13.456 8.591 11.314 9 9 9C6.686 9 4.544 8.592 2.942 7.891C2.6178 7.75033 2.30314 7.58865 2 7.407V9.5C2 9.652 2.066 9.876 2.348 10.167C2.634 10.463 3.096 10.775 3.744 11.059C5.038 11.625 6.895 12 9 12C11.105 12 12.962 11.625 14.256 11.059C14.904 10.775 15.366 10.463 15.652 10.167C15.934 9.877 16 9.652 16 9.5V7.407ZM9 2C6.895 2 5.038 2.375 3.744 2.941C3.096 3.225 2.634 3.537 2.348 3.833C2.066 4.123 2 4.348 2 4.5C2 4.652 2.066 4.876 2.348 5.167C2.634 5.463 3.096 5.775 3.744 6.059C5.038 6.625 6.895 7 9 7C11.105 7 12.962 6.625 14.256 6.059C14.904 5.775 15.366 5.463 15.652 5.167C15.934 4.877 16 4.652 16 4.5C16 4.348 15.934 4.124 15.652 3.833C15.366 3.537 14.904 3.225 14.256 2.941C12.962 2.375 11.105 2 9 2Z" fill="#8D8D8D"/>
</symbol>

<symbol id="financeA" viewBox="0 0 24 24">
<path d="M9 0C11.314 0 13.456 0.408 15.058 1.109C15.857 1.459 16.567 1.901 17.09 2.443C17.575 2.943 17.935 3.571 17.992 4.299L18 4.5V14.5C18 15.314 17.619 16.01 17.09 16.557C16.567 17.099 15.857 17.541 15.058 17.891C13.456 18.591 11.314 19 9 19C6.686 19 4.544 18.592 2.942 17.891C2.143 17.541 1.433 17.099 0.91 16.557C0.425 16.057 0.0649999 15.429 0.0079999 14.701L0 14.5V4.5C0 3.686 0.381 2.99 0.91 2.443C1.433 1.901 2.143 1.459 2.942 1.109C4.544 0.409 6.686 0 9 0ZM16 12.407C15.6969 12.5886 15.3822 12.7503 15.058 12.891C13.456 13.591 11.314 14 9 14C6.686 14 4.544 13.592 2.942 12.891C2.6178 12.7503 2.30314 12.5887 2 12.407V14.5C2 14.652 2.066 14.876 2.348 15.167C2.634 15.463 3.096 15.775 3.744 16.059C5.038 16.625 6.895 17 9 17C11.105 17 12.962 16.625 14.256 16.059C14.904 15.775 15.366 15.463 15.652 15.167C15.934 14.877 16 14.652 16 14.5V12.407ZM16 7.407C15.6969 7.58863 15.3822 7.75031 15.058 7.891C13.456 8.591 11.314 9 9 9C6.686 9 4.544 8.592 2.942 7.891C2.6178 7.75033 2.30314 7.58865 2 7.407V9.5C2 9.652 2.066 9.876 2.348 10.167C2.634 10.463 3.096 10.775 3.744 11.059C5.038 11.625 6.895 12 9 12C11.105 12 12.962 11.625 14.256 11.059C14.904 10.775 15.366 10.463 15.652 10.167C15.934 9.877 16 9.652 16 9.5V7.407ZM9 2C6.895 2 5.038 2.375 3.744 2.941C3.096 3.225 2.634 3.537 2.348 3.833C2.066 4.123 2 4.348 2 4.5C2 4.652 2.066 4.876 2.348 5.167C2.634 5.463 3.096 5.775 3.744 6.059C5.038 6.625 6.895 7 9 7C11.105 7 12.962 6.625 14.256 6.059C14.904 5.775 15.366 5.463 15.652 5.167C15.934 4.877 16 4.652 16 4.5C16 4.348 15.934 4.124 15.652 3.833C15.366 3.537 14.904 3.225 14.256 2.941C12.962 2.375 11.105 2 9 2Z" fill="#145EB6"/>
</symbol>

<symbol id="news" viewBox="0 0 24 24">
<path d="M18.75 20H5.25C4.41986 20.0001 3.62117 19.6824 3.01777 19.1123C2.41437 18.5422 2.052 17.7628 2.005 16.934L2 16.75V6.25C1.99993 5.67987 2.2163 5.13098 2.60537 4.71425C2.99444 4.29751 3.52721 4.04402 4.096 4.005L4.25 4H16.75C17.3201 3.99993 17.869 4.2163 18.2858 4.60537C18.7025 4.99444 18.956 5.52721 18.995 6.096L19 6.25V7H19.75C20.3201 6.99993 20.869 7.2163 21.2858 7.60537C21.7025 7.99444 21.956 8.52721 21.995 9.096L22 9.25V16.75C22.0001 17.5801 21.6824 18.3788 21.1123 18.9822C20.5422 19.5856 19.7628 19.948 18.934 19.995L18.75 20ZM5.25 18.5H18.75C19.1893 18.5 19.6126 18.3347 19.9357 18.037C20.2588 17.7392 20.4581 17.3309 20.494 16.893L20.5 16.75V9.25C20.5 9.06876 20.4344 8.89366 20.3152 8.75707C20.1961 8.62048 20.0316 8.53165 19.852 8.507L19.75 8.5H19V16.25C19 16.4312 18.9344 16.6063 18.8152 16.7429C18.6961 16.8795 18.5316 16.9684 18.352 16.993L18.25 17C18.0688 17 17.8937 16.9344 17.7571 16.8152C17.6205 16.6961 17.5316 16.5316 17.507 16.352L17.5 16.25V6.25C17.5 6.06876 17.4344 5.89366 17.3152 5.75707C17.1961 5.62048 17.0316 5.53165 16.852 5.507L16.75 5.5H4.25C4.06876 5.50001 3.89366 5.56564 3.75707 5.68477C3.62048 5.80389 3.53165 5.96845 3.507 6.148L3.5 6.25V16.75C3.50002 17.1892 3.66517 17.6123 3.96268 17.9354C4.26019 18.2585 4.6683 18.4579 5.106 18.494L5.25 18.5ZM12.246 14.5H15.252C15.442 14.5001 15.6249 14.5722 15.7638 14.702C15.9026 14.8317 15.9871 15.0093 16 15.1989C16.013 15.3885 15.9535 15.5759 15.8336 15.7233C15.7137 15.8707 15.5422 15.9671 15.354 15.993L15.252 16H12.246C12.056 15.9999 11.8731 15.9278 11.7342 15.798C11.5954 15.6683 11.5109 15.4907 11.498 15.3011C11.485 15.1115 11.5445 14.9241 11.6644 14.7767C11.7843 14.6293 11.9558 14.5329 12.144 14.507L12.246 14.5ZM9.243 11.005C9.44191 11.005 9.63268 11.084 9.77333 11.2247C9.91398 11.3653 9.993 11.5561 9.993 11.755V15.25C9.993 15.4489 9.91398 15.6397 9.77333 15.7803C9.63268 15.921 9.44191 16 9.243 16H5.748C5.54909 16 5.35832 15.921 5.21767 15.7803C5.07702 15.6397 4.998 15.4489 4.998 15.25V11.755C4.998 11.5561 5.07702 11.3653 5.21767 11.2247C5.35832 11.084 5.54909 11.005 5.748 11.005H9.243ZM8.493 12.505H6.498V14.5H8.493V12.505ZM12.246 11.005H15.252C15.442 11.0051 15.6249 11.0772 15.7638 11.207C15.9026 11.3367 15.9871 11.5143 16 11.7039C16.013 11.8935 15.9535 12.0809 15.8336 12.2283C15.7137 12.3757 15.5422 12.4721 15.354 12.498L15.252 12.505H12.246C12.0546 12.5069 11.8697 12.4357 11.7292 12.3057C11.5887 12.1758 11.5032 11.9971 11.4901 11.8061C11.4771 11.6152 11.5375 11.4265 11.6591 11.2787C11.7807 11.1308 11.9541 11.0351 12.144 11.011L12.246 11.005ZM5.748 7.502H15.252C15.4434 7.50005 15.6283 7.57134 15.7688 7.70127C15.9093 7.8312 15.9948 8.00993 16.0079 8.20088C16.0209 8.39182 15.9605 8.58052 15.8389 8.72834C15.7173 8.87616 15.5439 8.97192 15.354 8.996L15.252 9.002H5.748C5.55798 9.00194 5.37506 8.92976 5.23621 8.80003C5.09736 8.6703 5.01293 8.4927 4.99997 8.30312C4.98702 8.11354 5.04652 7.92611 5.16643 7.7787C5.28635 7.63129 5.45775 7.5349 5.646 7.509L5.748 7.502Z" fill="#8D8D8D"/>
</symbol>

<symbol id="newsA" viewBox="0 0 24 24">
<path d="M18.75 20H5.25C4.41986 20.0001 3.62117 19.6824 3.01777 19.1123C2.41437 18.5422 2.052 17.7628 2.005 16.934L2 16.75V6.25C1.99993 5.67987 2.2163 5.13098 2.60537 4.71425C2.99444 4.29751 3.52721 4.04402 4.096 4.005L4.25 4H16.75C17.3201 3.99993 17.869 4.2163 18.2858 4.60537C18.7025 4.99444 18.956 5.52721 18.995 6.096L19 6.25V7H19.75C20.3201 6.99993 20.869 7.2163 21.2858 7.60537C21.7025 7.99444 21.956 8.52721 21.995 9.096L22 9.25V16.75C22.0001 17.5801 21.6824 18.3788 21.1123 18.9822C20.5422 19.5856 19.7628 19.948 18.934 19.995L18.75 20ZM5.25 18.5H18.75C19.1893 18.5 19.6126 18.3347 19.9357 18.037C20.2588 17.7392 20.4581 17.3309 20.494 16.893L20.5 16.75V9.25C20.5 9.06876 20.4344 8.89366 20.3152 8.75707C20.1961 8.62048 20.0316 8.53165 19.852 8.507L19.75 8.5H19V16.25C19 16.4312 18.9344 16.6063 18.8152 16.7429C18.6961 16.8795 18.5316 16.9684 18.352 16.993L18.25 17C18.0688 17 17.8937 16.9344 17.7571 16.8152C17.6205 16.6961 17.5316 16.5316 17.507 16.352L17.5 16.25V6.25C17.5 6.06876 17.4344 5.89366 17.3152 5.75707C17.1961 5.62048 17.0316 5.53165 16.852 5.507L16.75 5.5H4.25C4.06876 5.50001 3.89366 5.56564 3.75707 5.68477C3.62048 5.80389 3.53165 5.96845 3.507 6.148L3.5 6.25V16.75C3.50002 17.1892 3.66517 17.6123 3.96268 17.9354C4.26019 18.2585 4.6683 18.4579 5.106 18.494L5.25 18.5ZM12.246 14.5H15.252C15.442 14.5001 15.6249 14.5722 15.7638 14.702C15.9026 14.8317 15.9871 15.0093 16 15.1989C16.013 15.3885 15.9535 15.5759 15.8336 15.7233C15.7137 15.8707 15.5422 15.9671 15.354 15.993L15.252 16H12.246C12.056 15.9999 11.8731 15.9278 11.7342 15.798C11.5954 15.6683 11.5109 15.4907 11.498 15.3011C11.485 15.1115 11.5445 14.9241 11.6644 14.7767C11.7843 14.6293 11.9558 14.5329 12.144 14.507L12.246 14.5ZM9.243 11.005C9.44191 11.005 9.63268 11.084 9.77333 11.2247C9.91398 11.3653 9.993 11.5561 9.993 11.755V15.25C9.993 15.4489 9.91398 15.6397 9.77333 15.7803C9.63268 15.921 9.44191 16 9.243 16H5.748C5.54909 16 5.35832 15.921 5.21767 15.7803C5.07702 15.6397 4.998 15.4489 4.998 15.25V11.755C4.998 11.5561 5.07702 11.3653 5.21767 11.2247C5.35832 11.084 5.54909 11.005 5.748 11.005H9.243ZM8.493 12.505H6.498V14.5H8.493V12.505ZM12.246 11.005H15.252C15.442 11.0051 15.6249 11.0772 15.7638 11.207C15.9026 11.3367 15.9871 11.5143 16 11.7039C16.013 11.8935 15.9535 12.0809 15.8336 12.2283C15.7137 12.3757 15.5422 12.4721 15.354 12.498L15.252 12.505H12.246C12.0546 12.5069 11.8697 12.4357 11.7292 12.3057C11.5887 12.1758 11.5032 11.9971 11.4901 11.8061C11.4771 11.6152 11.5375 11.4265 11.6591 11.2787C11.7807 11.1308 11.9541 11.0351 12.144 11.011L12.246 11.005ZM5.748 7.502H15.252C15.4434 7.50005 15.6283 7.57134 15.7688 7.70127C15.9093 7.8312 15.9948 8.00993 16.0079 8.20088C16.0209 8.39182 15.9605 8.58052 15.8389 8.72834C15.7173 8.87616 15.5439 8.97192 15.354 8.996L15.252 9.002H5.748C5.55798 9.00194 5.37506 8.92976 5.23621 8.80003C5.09736 8.6703 5.01293 8.4927 4.99997 8.30312C4.98702 8.11354 5.04652 7.92611 5.16643 7.7787C5.28635 7.63129 5.45775 7.5349 5.646 7.509L5.748 7.502Z" fill="#145EB6"/>
</symbol>

<symbol id="offers" viewBox="0 0 24 24">
<path fill-rule="evenodd" clip-rule="evenodd" d="M3.87868 1.87868C4.44129 1.31607 5.20435 1 6 1H14C14.2652 1 14.5196 1.10536 14.7071 1.29289L20.7071 7.29289C20.8946 7.48043 21 7.73478 21 8V20C21 20.7957 20.6839 21.5587 20.1213 22.1213C19.5587 22.6839 18.7957 23 18 23H6C5.20435 23 4.44129 22.6839 3.87868 22.1213C3.31607 21.5587 3 20.7957 3 20V4C3 3.20435 3.31607 2.44129 3.87868 1.87868ZM6 3C5.73478 3 5.48043 3.10536 5.29289 3.29289C5.10536 3.48043 5 3.73478 5 4V20C5 20.2652 5.10536 20.5196 5.29289 20.7071C5.48043 20.8946 5.73478 21 6 21H18C18.2652 21 18.5196 20.8946 18.7071 20.7071C18.8946 20.5196 19 20.2652 19 20V8.41421L13.5858 3H6Z" fill="#8D8D8D"/>
<path fill-rule="evenodd" clip-rule="evenodd" d="M14 1C14.5523 1 15 1.44772 15 2V7H20C20.5523 7 21 7.44772 21 8C21 8.55228 20.5523 9 20 9H14C13.4477 9 13 8.55228 13 8V2C13 1.44772 13.4477 1 14 1Z" fill="#8D8D8D"/>
<path fill-rule="evenodd" clip-rule="evenodd" d="M7 13C7 12.4477 7.44772 12 8 12H16C16.5523 12 17 12.4477 17 13C17 13.5523 16.5523 14 16 14H8C7.44772 14 7 13.5523 7 13Z" fill="#8D8D8D"/>
<path fill-rule="evenodd" clip-rule="evenodd" d="M7 17C7 16.4477 7.44772 16 8 16H16C16.5523 16 17 16.4477 17 17C17 17.5523 16.5523 18 16 18H8C7.44772 18 7 17.5523 7 17Z" fill="#8D8D8D"/>
<path fill-rule="evenodd" clip-rule="evenodd" d="M7 9C7 8.44772 7.44772 8 8 8H10C10.5523 8 11 8.44772 11 9C11 9.55228 10.5523 10 10 10H8C7.44772 10 7 9.55228 7 9Z" fill="#8D8D8D"/>
</symbol>

<symbol id="offersA" viewBox="0 0 24 24">
<path fill-rule="evenodd" clip-rule="evenodd" d="M3.87868 1.87868C4.44129 1.31607 5.20435 1 6 1H14C14.2652 1 14.5196 1.10536 14.7071 1.29289L20.7071 7.29289C20.8946 7.48043 21 7.73478 21 8V20C21 20.7957 20.6839 21.5587 20.1213 22.1213C19.5587 22.6839 18.7957 23 18 23H6C5.20435 23 4.44129 22.6839 3.87868 22.1213C3.31607 21.5587 3 20.7957 3 20V4C3 3.20435 3.31607 2.44129 3.87868 1.87868ZM6 3C5.73478 3 5.48043 3.10536 5.29289 3.29289C5.10536 3.48043 5 3.73478 5 4V20C5 20.2652 5.10536 20.5196 5.29289 20.7071C5.48043 20.8946 5.73478 21 6 21H18C18.2652 21 18.5196 20.8946 18.7071 20.7071C18.8946 20.5196 19 20.2652 19 20V8.41421L13.5858 3H6Z" fill="#145EB6"/>
<path fill-rule="evenodd" clip-rule="evenodd" d="M14 1C14.5523 1 15 1.44772 15 2V7H20C20.5523 7 21 7.44772 21 8C21 8.55228 20.5523 9 20 9H14C13.4477 9 13 8.55228 13 8V2C13 1.44772 13.4477 1 14 1Z" fill="#145EB6"/>
<path fill-rule="evenodd" clip-rule="evenodd" d="M7 13C7 12.4477 7.44772 12 8 12H16C16.5523 12 17 12.4477 17 13C17 13.5523 16.5523 14 16 14H8C7.44772 14 7 13.5523 7 13Z" fill="#145EB6"/>
<path fill-rule="evenodd" clip-rule="evenodd" d="M7 17C7 16.4477 7.44772 16 8 16H16C16.5523 16 17 16.4477 17 17C17 17.5523 16.5523 18 16 18H8C7.44772 18 7 17.5523 7 17Z" fill="#145EB6"/>
<path fill-rule="evenodd" clip-rule="evenodd" d="M7 9C7 8.44772 7.44772 8 8 8H10C10.5523 8 11 8.44772 11 9C11 9.55228 10.5523 10 10 10H8C7.44772 10 7 9.55228 7 9Z" fill="#145EB6"/>
</symbol>

<symbol id="profile" viewBox="0 0 24 24">
<path fill-rule="evenodd" clip-rule="evenodd" d="M4.46447 15.4645C5.40215 14.5268 6.67392 14 8 14H15C16.3261 14 17.5979 14.5268 18.5355 15.4645C19.4732 16.4021 20 17.6739 20 19V21C20 21.5523 19.5523 22 19 22C18.4477 22 18 21.5523 18 21V19C18 18.2044 17.6839 17.4413 17.1213 16.8787C16.5587 16.3161 15.7956 16 15 16H8C7.20435 16 6.44129 16.3161 5.87868 16.8787C5.31607 17.4413 5 18.2044 5 19V21C5 21.5523 4.55228 22 4 22C3.44772 22 3 21.5523 3 21V19C3 17.6739 3.52678 16.4021 4.46447 15.4645Z" fill="#8D8D8D"/>
<path fill-rule="evenodd" clip-rule="evenodd" d="M11.5 4C9.84315 4 8.5 5.34315 8.5 7C8.5 8.65685 9.84315 10 11.5 10C13.1569 10 14.5 8.65685 14.5 7C14.5 5.34315 13.1569 4 11.5 4ZM6.5 7C6.5 4.23858 8.73858 2 11.5 2C14.2614 2 16.5 4.23858 16.5 7C16.5 9.76142 14.2614 12 11.5 12C8.73858 12 6.5 9.76142 6.5 7Z" fill="#8D8D8D"/>
</symbol>

<symbol id="profileA" viewBox="0 0 24 24">
<path fill-rule="evenodd" clip-rule="evenodd" d="M4.46447 15.4645C5.40215 14.5268 6.67392 14 8 14H15C16.3261 14 17.5979 14.5268 18.5355 15.4645C19.4732 16.4021 20 17.6739 20 19V21C20 21.5523 19.5523 22 19 22C18.4477 22 18 21.5523 18 21V19C18 18.2044 17.6839 17.4413 17.1213 16.8787C16.5587 16.3161 15.7956 16 15 16H8C7.20435 16 6.44129 16.3161 5.87868 16.8787C5.31607 17.4413 5 18.2044 5 19V21C5 21.5523 4.55228 22 4 22C3.44772 22 3 21.5523 3 21V19C3 17.6739 3.52678 16.4021 4.46447 15.4645Z" fill="#145EB6"/>
<path fill-rule="evenodd" clip-rule="evenodd" d="M11.5 4C9.84315 4 8.5 5.34315 8.5 7C8.5 8.65685 9.84315 10 11.5 10C13.1569 10 14.5 8.65685 14.5 7C14.5 5.34315 13.1569 4 11.5 4ZM6.5 7C6.5 4.23858 8.73858 2 11.5 2C14.2614 2 16.5 4.23858 16.5 7C16.5 9.76142 14.2614 12 11.5 12C8.73858 12 6.5 9.76142 6.5 7Z" fill="#145EB6"/>
</symbol>

<symbol id="notifications" viewBox="0 0 24 24">
<path fill-rule="evenodd" clip-rule="evenodd" d="M12.0008 17C12.001 17.5046 11.8104 17.9906 11.4673 18.3605C11.1242 18.7305 10.654 18.9572 10.1508 18.995L10.0008 19H8.00082C7.49625 19.0002 7.01026 18.8096 6.64028 18.4665C6.2703 18.1234 6.04367 17.6532 6.00583 17.15L6.00082 17H12.0008ZM9.00082 9.54067e-10C10.8158 -2.9945e-05 12.5598 0.704894 13.8651 1.96607C15.1703 3.22726 15.9346 4.94609 15.9968 6.76L16.0008 7V10.764L17.8228 14.408C17.9023 14.567 17.9421 14.7429 17.9388 14.9206C17.9355 15.0984 17.8891 15.2727 17.8037 15.4286C17.7183 15.5845 17.5963 15.7174 17.4483 15.8158C17.3003 15.9143 17.1306 15.9754 16.9538 15.994L16.8388 16H1.16283C0.984989 16.0001 0.809792 15.957 0.652246 15.8745C0.4947 15.792 0.359504 15.6725 0.258242 15.5264C0.15698 15.3802 0.0926725 15.2116 0.0708294 15.0351C0.0489862 14.8586 0.0702592 14.6795 0.132825 14.513L0.178825 14.408L2.00083 10.764V7C2.00083 5.14348 2.73832 3.36301 4.05108 2.05025C5.36383 0.737498 7.14431 9.54069e-10 9.00082 9.54067e-10ZM9.00082 2C7.71236 2.00007 6.47366 2.49754 5.54305 3.38866C4.61243 4.27978 4.06174 5.49575 4.00583 6.783L4.00083 7V10.764C4.00084 11.012 3.95472 11.2579 3.86483 11.489L3.78983 11.659L2.61983 14H15.3828L14.2128 11.658C14.1018 11.4363 14.033 11.1959 14.0098 10.949L14.0008 10.764V7C14.0008 5.67392 13.474 4.40215 12.5364 3.46447C11.5987 2.52678 10.3269 2 9.00082 2Z" fill="#8D8D8D"/>
</symbol>

<symbol id="notificationsA" viewBox="0 0 24 24">
<path fill-rule="evenodd" clip-rule="evenodd" d="M12.0008 17C12.001 17.5046 11.8104 17.9906 11.4673 18.3605C11.1242 18.7305 10.654 18.9572 10.1508 18.995L10.0008 19H8.00082C7.49625 19.0002 7.01026 18.8096 6.64028 18.4665C6.2703 18.1234 6.04367 17.6532 6.00583 17.15L6.00082 17H12.0008ZM9.00082 9.54067e-10C10.8158 -2.9945e-05 12.5598 0.704894 13.8651 1.96607C15.1703 3.22726 15.9346 4.94609 15.9968 6.76L16.0008 7V10.764L17.8228 14.408C17.9023 14.567 17.9421 14.7429 17.9388 14.9206C17.9355 15.0984 17.8891 15.2727 17.8037 15.4286C17.7183 15.5845 17.5963 15.7174 17.4483 15.8158C17.3003 15.9143 17.1306 15.9754 16.9538 15.994L16.8388 16H1.16283C0.984989 16.0001 0.809792 15.957 0.652246 15.8745C0.4947 15.792 0.359504 15.6725 0.258242 15.5264C0.15698 15.3802 0.0926725 15.2116 0.0708294 15.0351C0.0489862 14.8586 0.0702592 14.6795 0.132825 14.513L0.178825 14.408L2.00083 10.764V7C2.00083 5.14348 2.73832 3.36301 4.05108 2.05025C5.36383 0.737498 7.14431 9.54069e-10 9.00082 9.54067e-10ZM9.00082 2C7.71236 2.00007 6.47366 2.49754 5.54305 3.38866C4.61243 4.27978 4.06174 5.49575 4.00583 6.783L4.00083 7V10.764C4.00084 11.012 3.95472 11.2579 3.86483 11.489L3.78983 11.659L2.61983 14H15.3828L14.2128 11.658C14.1018 11.4363 14.033 11.1959 14.0098 10.949L14.0008 10.764V7C14.0008 5.67392 13.474 4.40215 12.5364 3.46447C11.5987 2.52678 10.3269 2 9.00082 2Z" fill="#145EB6"/>
</symbol>


<symbol id="support" viewBox="0 0 24 24">
<path d="M6.382 4.968L9.242 7.828C10.0604 7.28774 11.0194 6.99974 12 6.99974C12.9806 6.99974 13.9396 7.28774 14.758 7.828L17.618 4.968C16.0226 3.69416 14.0416 3.00034 12 3.00034C9.95841 3.00034 7.97744 3.69416 6.382 4.968ZM19.032 6.382L16.172 9.242C16.7123 10.0604 17.0003 11.0194 17.0003 12C17.0003 12.9806 16.7123 13.9396 16.172 14.758L19.032 17.618C20.3058 16.0226 20.9997 14.0416 20.9997 12C20.9997 9.95841 20.3058 7.97744 19.032 6.382ZM17.618 19.032L14.758 16.172C13.9396 16.7123 12.9806 17.0003 12 17.0003C11.0194 17.0003 10.0604 16.7123 9.242 16.172L6.382 19.032C7.97744 20.3058 9.95841 20.9997 12 20.9997C14.0416 20.9997 16.0226 20.3058 17.618 19.032ZM4.968 17.618L7.828 14.758C7.28774 13.9396 6.99974 12.9806 6.99974 12C6.99974 11.0194 7.28774 10.0604 7.828 9.242L4.968 6.382C3.69416 7.97744 3.00034 9.95841 3.00034 12C3.00034 14.0416 3.69416 16.0226 4.968 17.618ZM4.222 4.222C8.518 -0.0739999 15.482 -0.0739999 19.778 4.222C24.074 8.518 24.074 15.482 19.778 19.778C15.482 24.074 8.518 24.074 4.222 19.778C-0.0739999 15.482 -0.0739999 8.518 4.222 4.222ZM14.122 9.879C13.8443 9.59667 13.5134 9.37211 13.1485 9.21829C12.7836 9.06446 12.3918 8.98441 11.9958 8.98275C11.5998 8.98109 11.2074 9.05786 10.8412 9.20862C10.4749 9.35938 10.1422 9.58116 9.86216 9.86115C9.5821 10.1412 9.36024 10.4738 9.20939 10.84C9.05855 11.2062 8.98169 11.5986 8.98325 11.9946C8.98482 12.3906 9.06478 12.7824 9.21852 13.1474C9.37225 13.5123 9.59673 13.8432 9.879 14.121C10.4465 14.6578 11.2011 14.9521 11.9822 14.9412C12.7634 14.9304 13.5094 14.6152 14.0618 14.0628C14.6142 13.5104 14.9294 12.7644 14.9402 11.9832C14.9511 11.2021 14.6568 10.4475 14.12 9.88L14.122 9.879Z" fill="#8D8D8D"/>
</symbol>


<symbol id="supportA" viewBox="0 0 24 24">
<path d="M6.382 4.968L9.242 7.828C10.0604 7.28774 11.0194 6.99974 12 6.99974C12.9806 6.99974 13.9396 7.28774 14.758 7.828L17.618 4.968C16.0226 3.69416 14.0416 3.00034 12 3.00034C9.95841 3.00034 7.97744 3.69416 6.382 4.968ZM19.032 6.382L16.172 9.242C16.7123 10.0604 17.0003 11.0194 17.0003 12C17.0003 12.9806 16.7123 13.9396 16.172 14.758L19.032 17.618C20.3058 16.0226 20.9997 14.0416 20.9997 12C20.9997 9.95841 20.3058 7.97744 19.032 6.382ZM17.618 19.032L14.758 16.172C13.9396 16.7123 12.9806 17.0003 12 17.0003C11.0194 17.0003 10.0604 16.7123 9.242 16.172L6.382 19.032C7.97744 20.3058 9.95841 20.9997 12 20.9997C14.0416 20.9997 16.0226 20.3058 17.618 19.032ZM4.968 17.618L7.828 14.758C7.28774 13.9396 6.99974 12.9806 6.99974 12C6.99974 11.0194 7.28774 10.0604 7.828 9.242L4.968 6.382C3.69416 7.97744 3.00034 9.95841 3.00034 12C3.00034 14.0416 3.69416 16.0226 4.968 17.618ZM4.222 4.222C8.518 -0.0739999 15.482 -0.0739999 19.778 4.222C24.074 8.518 24.074 15.482 19.778 19.778C15.482 24.074 8.518 24.074 4.222 19.778C-0.0739999 15.482 -0.0739999 8.518 4.222 4.222ZM14.122 9.879C13.8443 9.59667 13.5134 9.37211 13.1485 9.21829C12.7836 9.06446 12.3918 8.98441 11.9958 8.98275C11.5998 8.98109 11.2074 9.05786 10.8412 9.20862C10.4749 9.35938 10.1422 9.58116 9.86216 9.86115C9.5821 10.1412 9.36024 10.4738 9.20939 10.84C9.05855 11.2062 8.98169 11.5986 8.98325 11.9946C8.98482 12.3906 9.06478 12.7824 9.21852 13.1474C9.37225 13.5123 9.59673 13.8432 9.879 14.121C10.4465 14.6578 11.2011 14.9521 11.9822 14.9412C12.7634 14.9304 13.5094 14.6152 14.0618 14.0628C14.6142 13.5104 14.9294 12.7644 14.9402 11.9832C14.9511 11.2021 14.6568 10.4475 14.12 9.88L14.122 9.879Z" fill="#145EB6"/>
</symbol>

<symbol id="arrow_dowmS" viewBox="0 0 10 10">
<path fill-rule="evenodd" clip-rule="evenodd" d="M2.20602 3.45538C2.36874 3.29266 2.63256 3.29266 2.79528 3.45538L5.00065 5.66075L7.20602 3.45538C7.36874 3.29266 7.63256 3.29266 7.79528 3.45538C7.958 3.6181 7.958 3.88192 7.79528 4.04464L5.29528 6.54464C5.13256 6.70736 4.86874 6.70736 4.70602 6.54464L2.20602 4.04464C2.0433 3.88192 2.0433 3.6181 2.20602 3.45538Z" fill="#282828"/>
</symbol>

<symbol id="arow_down" viewBox="0 0 14 14">
<path fill-rule="evenodd" clip-rule="evenodd" d="M6.99935 2.33334C7.32152 2.33334 7.58268 2.59451 7.58268 2.91668V11.0833C7.58268 11.4055 7.32152 11.6667 6.99935 11.6667C6.67718 11.6667 6.41602 11.4055 6.41602 11.0833V2.91668C6.41602 2.59451 6.67718 2.33334 6.99935 2.33334Z" fill="#FF3D00"/>
<path fill-rule="evenodd" clip-rule="evenodd" d="M2.50484 6.58751C2.73264 6.35971 3.10199 6.35971 3.3298 6.58751L7.00065 10.2584L10.6715 6.58751C10.8993 6.35971 11.2687 6.35971 11.4965 6.58751C11.7243 6.81532 11.7243 7.18466 11.4965 7.41247L7.41313 11.4958C7.18532 11.7236 6.81598 11.7236 6.58817 11.4958L2.50484 7.41247C2.27703 7.18466 2.27703 6.81532 2.50484 6.58751Z" fill="#FF3D00"/>
</symbol>

<symbol id="arow_up" viewBox="0 0 14 14">
<path fill-rule="evenodd" clip-rule="evenodd" d="M7.00065 11.6667C6.67848 11.6667 6.41732 11.4055 6.41732 11.0833L6.41732 2.91667C6.41732 2.5945 6.67848 2.33334 7.00065 2.33334C7.32282 2.33334 7.58398 2.5945 7.58398 2.91667L7.58398 11.0833C7.58398 11.4055 7.32282 11.6667 7.00065 11.6667Z" fill="#23B40C"/>
<path fill-rule="evenodd" clip-rule="evenodd" d="M11.4952 7.41247C11.2674 7.64028 10.898 7.64028 10.6702 7.41247L6.99935 3.74162L3.32849 7.41247C3.10069 7.64028 2.73134 7.64028 2.50354 7.41247C2.27573 7.18467 2.27573 6.81532 2.50354 6.58752L6.58687 2.50418C6.81467 2.27638 7.18402 2.27638 7.41183 2.50418L11.4952 6.58752C11.723 6.81532 11.723 7.18467 11.4952 7.41247Z" fill="#23B40C"/>
</symbol>

<symbol id="car" viewBox="0 0 20 20">
<path d="M15.75 5.25833C15.5833 4.73176 15.0833 4.38071 14.5833 4.38071L5.41667 4.38071C4.83333 4.38071 4.41667 4.73176 4.25 5.25833L2.5 10.5241L2.5 17.545C2.5 17.9838 2.91667 18.4226 3.33333 18.4226H4.16667C4.66667 18.4226 5 17.9838 5 17.545V16.6674H15V17.545C15 17.9838 15.4167 18.4226 15.8333 18.4226H16.6667C17.0833 18.4226 17.5 17.9838 17.5 17.545V10.5241L15.75 5.25833ZM5.66667 6.13595L14.25 6.13595L15.1667 8.76881L4.83333 8.76881L5.66667 6.13595ZM15.8333 14.9122L4.16667 14.9122L4.16667 10.5241L15.8333 10.5241L15.8333 14.9122ZM6.25 11.4017C6.91667 11.4017 7.5 12.016 7.5 12.7181C7.5 13.4202 6.91667 14.0345 6.25 14.0345C5.58333 14.0345 5 13.4202 5 12.7181C5 12.016 5.58333 11.4017 6.25 11.4017ZM13.75 11.4017C14.4167 11.4017 15 12.016 15 12.7181C15 13.4202 14.4167 14.0345 13.75 14.0345C13.0833 14.0345 12.5 13.4202 12.5 12.7181C12.5 12.016 13.0833 11.4017 13.75 11.4017Z" fill="#8D8D8D"/>
</symbol>

<symbol id="arrow_down-solid" viewBox="0 0 12 12">
<path d="M10.4997 2.83803L1.49971 2.83803C1.40859 2.83833 1.31928 2.8648 1.24138 2.91458C1.16348 2.96437 1.09994 3.03558 1.05762 3.12056C1.01529 3.20555 0.995772 3.30108 1.00116 3.39687C1.00656 3.49267 1.03665 3.5851 1.08821 3.66422L5.58821 10.5097C5.77471 10.7935 6.22371 10.7935 6.41071 10.5097L10.9107 3.66422C10.9628 3.58527 10.9933 3.49279 10.999 3.39683C11.0047 3.30088 10.9853 3.20512 10.943 3.11995C10.9006 3.03479 10.8369 2.96348 10.7587 2.91378C10.6806 2.86408 10.591 2.83788 10.4997 2.83803Z" fill="#8D8D8D"/>
</symbol>

<symbol id="date" viewBox="0 0 20 20">
<path d="M15.8327 3.50311H14.166V2.62548C14.166 2.39273 14.0782 2.1695 13.9219 2.00491C13.7657 1.84033 13.5537 1.74786 13.3327 1.74786C13.1117 1.74786 12.8997 1.84033 12.7434 2.00491C12.5871 2.1695 12.4993 2.39273 12.4993 2.62548V3.50311L7.49935 3.50311V2.62548C7.49935 2.39273 7.41155 2.1695 7.25527 2.00491C7.09899 1.84033 6.88703 1.74786 6.66602 1.74786C6.445 1.74786 6.23304 1.84033 6.07676 2.00491C5.92048 2.1695 5.83268 2.39273 5.83268 2.62548V3.50311L4.16602 3.50311C3.50297 3.50311 2.86709 3.7805 2.39825 4.27425C1.92941 4.76801 1.66602 5.43769 1.66602 6.13597L1.66602 16.6674C1.66602 17.3657 1.92941 18.0354 2.39825 18.5291C2.86709 19.0229 3.50297 19.3003 4.16602 19.3003L15.8327 19.3003C16.4957 19.3003 17.1316 19.0229 17.6005 18.5291C18.0693 18.0354 18.3327 17.3657 18.3327 16.6674V6.13597C18.3327 5.43769 18.0693 4.76801 17.6005 4.27425C17.1316 3.7805 16.4957 3.50311 15.8327 3.50311ZM16.666 16.6674C16.666 16.9002 16.5782 17.1234 16.4219 17.288C16.2657 17.4526 16.0537 17.545 15.8327 17.545H4.16602C3.945 17.545 3.73304 17.4526 3.57676 17.288C3.42048 17.1234 3.33268 16.9002 3.33268 16.6674L3.33268 10.5241L16.666 10.5241V16.6674ZM16.666 8.76883L3.33268 8.76883L3.33268 6.13597C3.33268 5.90321 3.42048 5.67998 3.57676 5.5154C3.73304 5.35081 3.945 5.25835 4.16602 5.25835H5.83268L5.83268 6.13597C5.83268 6.36873 5.92048 6.59196 6.07676 6.75654C6.23304 6.92113 6.445 7.01359 6.66602 7.01359C6.88703 7.01359 7.09899 6.92113 7.25527 6.75654C7.41155 6.59196 7.49935 6.36873 7.49935 6.13597L7.49935 5.25835L12.4993 5.25835V6.13597C12.4993 6.36873 12.5871 6.59196 12.7434 6.75654C12.8997 6.92113 13.1117 7.01359 13.3327 7.01359C13.5537 7.01359 13.7657 6.92113 13.9219 6.75654C14.0782 6.59196 14.166 6.36873 14.166 6.13597V5.25835H15.8327C16.0537 5.25835 16.2657 5.35081 16.4219 5.5154C16.5782 5.67998 16.666 5.90321 16.666 6.13597V8.76883Z" fill="#8D8D8D"/>
</symbol>


<symbol id="green_dawn" viewBox="0 0 20 20">
<path fill-rule="evenodd" clip-rule="evenodd" d="M9.99935 3.33333C10.4596 3.33333 10.8327 3.70642 10.8327 4.16666V15.8333C10.8327 16.2936 10.4596 16.6667 9.99935 16.6667C9.53911 16.6667 9.16602 16.2936 9.16602 15.8333V4.16666C9.16602 3.70642 9.53911 3.33333 9.99935 3.33333Z" fill="#23B40C"/>
<path fill-rule="evenodd" clip-rule="evenodd" d="M3.57806 9.41075C3.9035 9.08531 4.43114 9.08531 4.75657 9.41075L10.0007 14.6548L15.2447 9.41075C15.5702 9.08531 16.0978 9.08531 16.4232 9.41075C16.7487 9.73619 16.7487 10.2638 16.4232 10.5893L10.5899 16.4226C10.2645 16.748 9.73683 16.748 9.4114 16.4226L3.57806 10.5893C3.25263 10.2638 3.25263 9.73619 3.57806 9.41075Z" fill="#23B40C"/>
</symbol>

<symbol id="plus" viewBox="0 0 28 28">
<path d="M21.3701 17.697H15.6125V23.7576C15.6125 24.0791 15.4912 24.3874 15.2752 24.6147C15.0593 24.842 14.7664 24.9697 14.461 24.9697C14.1556 24.9697 13.8627 24.842 13.6468 24.6147C13.4308 24.3874 13.3095 24.0791 13.3095 23.7576V17.697H7.55191C7.24651 17.697 6.95361 17.5693 6.73766 17.342C6.52171 17.1147 6.40039 16.8064 6.40039 16.4849C6.40039 16.1634 6.52171 15.8551 6.73766 15.6278C6.95361 15.4005 7.24651 15.2728 7.55191 15.2728H13.3095V9.21215C13.3095 8.89068 13.4308 8.58237 13.6468 8.35505C13.8627 8.12774 14.1556 8.00003 14.461 8.00003C14.7664 8.00003 15.0593 8.12774 15.2752 8.35505C15.4912 8.58237 15.6125 8.89068 15.6125 9.21215V15.2728H21.3701C21.6755 15.2728 21.9684 15.4005 22.1843 15.6278C22.4003 15.8551 22.5216 16.1634 22.5216 16.4849C22.5216 16.8064 22.4003 17.1147 22.1843 17.342C21.9684 17.5693 21.6755 17.697 21.3701 17.697Z" fill="#282828"/>
</symbol>

<symbol id="ar-up" viewBox="0 0 8 8">
<path d="M0.99954 6.33334L6.99954 6.33334C7.06029 6.33315 7.11983 6.31639 7.17177 6.28488C7.2237 6.25336 7.26605 6.20828 7.29427 6.15449C7.32249 6.10069 7.3355 6.04022 7.33191 5.97958C7.32831 5.91894 7.30825 5.86042 7.27387 5.81034L4.27387 1.477C4.14954 1.29734 3.85021 1.29734 3.72554 1.477L0.72554 5.81034C0.690815 5.86032 0.670452 5.91886 0.666662 5.9796C0.662872 6.04035 0.675801 6.10096 0.704045 6.15487C0.732288 6.20878 0.774765 6.25392 0.826862 6.28539C0.878958 6.31685 0.93868 6.33343 0.99954 6.33334Z" fill="#A7A7A7"/>
</symbol>

<symbol id="ar-down" viewBox="0 0 8 8">
<path d="M7.00046 1.66666L1.00046 1.66666C0.939713 1.66685 0.880168 1.68361 0.828235 1.71512C0.776302 1.74663 0.733947 1.79172 0.705728 1.84551C0.677511 1.89931 0.664499 1.95978 0.668093 2.02042C0.671687 2.08106 0.691752 2.13958 0.726127 2.18966L3.72613 6.523C3.85046 6.70266 4.14979 6.70266 4.27446 6.523L7.27446 2.18966C7.30919 2.13968 7.32955 2.08114 7.33334 2.0204C7.33713 1.95965 7.3242 1.89904 7.29596 1.84513C7.26771 1.79122 7.22523 1.74608 7.17314 1.71461C7.12104 1.68315 7.06132 1.66657 7.00046 1.66666Z" fill="#A7A7A7"/>
</symbol>

<symbol id="plas" viewBox="0 0 16 16">
<g clip-path="url(#clip0_437_2134)">
<path d="M4.45831 10.2804L10.2811 10.2804L10.2811 4.48778C10.277 4.35571 10.2996 4.22417 10.3475 4.10104C10.3955 3.97792 10.4678 3.86574 10.5602 3.77125C10.7602 3.57121 11.0315 3.45883 11.3144 3.45883C11.5973 3.45883 11.8686 3.57121 12.0687 3.77125C12.1629 3.86196 12.2376 3.97097 12.2882 4.0916C12.3388 4.21222 12.3642 4.34191 12.3628 4.4727L12.3251 10.303L18.1932 10.303C18.4391 10.3003 18.6767 10.3921 18.8569 10.5595C19.0569 10.7595 19.1693 11.0308 19.1693 11.3137C19.1693 11.5966 19.0569 11.8679 18.8569 12.068C18.7648 12.1681 18.6528 12.2479 18.5282 12.3025C18.4035 12.357 18.2689 12.385 18.1328 12.3848L12.3477 12.347L12.3477 18.1547C12.3498 18.2843 12.3263 18.413 12.2784 18.5334C12.2305 18.6538 12.1592 18.7635 12.0687 18.8562C11.8686 19.0562 11.5973 19.1686 11.3144 19.1686C11.0315 19.1686 10.7602 19.0562 10.5602 18.8562C10.4659 18.7655 10.3912 18.6565 10.3407 18.5358C10.2901 18.4152 10.2647 18.2855 10.266 18.1547L10.3037 12.3244L4.43569 12.3244C4.18976 12.3271 3.95218 12.2353 3.77195 12.068C3.57191 11.8679 3.45953 11.5966 3.45953 11.3137C3.45953 11.0308 3.57191 10.7595 3.77195 10.5595C3.95523 10.3807 4.20187 10.2804 4.45831 10.2804Z" fill="#145EB6"/>
</g>
<defs>
<clipPath id="clip0_437_2134">
<rect width="16" height="16" fill="white" transform="translate(0 11.3137) rotate(-45)"/>
</clipPath>
</defs></symbol>


<symbol id="setting" viewBox="0 02 4 24">
<g clip-path="url(#clip0_437_2137)">
<path fill-rule="evenodd" clip-rule="evenodd" d="M12 10C10.8954 10 10 10.8954 10 12C10 13.1046 10.8954 14 12 14C13.1046 14 14 13.1046 14 12C14 10.8954 13.1046 10 12 10ZM8 12C8 9.79086 9.79086 8 12 8C14.2091 8 16 9.79086 16 12C16 14.2091 14.2091 16 12 16C9.79086 16 8 14.2091 8 12Z" fill="#8D8D8D"/>
<path fill-rule="evenodd" clip-rule="evenodd" d="M12 2C11.7348 2 11.4804 2.10536 11.2929 2.29289C11.1054 2.48043 11 2.73478 11 3V3.17399C10.9979 3.6908 10.8448 4.19572 10.5594 4.62661C10.2741 5.0575 9.86895 5.39555 9.39393 5.59914C9.30938 5.63538 9.22042 5.65969 9.12961 5.67157C8.69798 5.82272 8.23333 5.85998 7.781 5.77796C7.26 5.68349 6.77925 5.43512 6.40073 5.06486L6.39285 5.05715L6.33289 4.99711C6.24002 4.90413 6.12934 4.82998 6.00794 4.77965C5.88654 4.72933 5.75642 4.70343 5.625 4.70343C5.49358 4.70343 5.36346 4.72933 5.24206 4.77965C5.12066 4.82998 5.01037 4.90374 4.9175 4.99671L4.91671 4.9975C4.82374 5.09037 4.74998 5.20066 4.69965 5.32206C4.64933 5.44346 4.62343 5.57358 4.62343 5.705C4.62343 5.83642 4.64933 5.96654 4.69965 6.08794C4.74998 6.20934 4.82374 6.31963 4.91671 6.4125L4.98491 6.48069C5.35516 6.85921 5.60349 7.34 5.69796 7.861C5.79055 8.37163 5.73113 8.89797 5.52745 9.37478C5.34189 9.86133 5.01698 10.2827 4.59305 10.5859C4.16054 10.8952 3.64498 11.0673 3.11338 11.0797L3.09 11.08H3C2.73478 11.08 2.48043 11.1854 2.29289 11.3729C2.10536 11.5604 2 11.8148 2 12.08C2 12.3452 2.10536 12.5996 2.29289 12.7871C2.48043 12.9746 2.73478 13.08 3 13.08H3.17399C3.6908 13.0821 4.19572 13.2352 4.62661 13.5206C5.05601 13.8049 5.3932 14.2082 5.59701 14.6811C5.80908 15.1643 5.87211 15.6998 5.77796 16.219C5.68349 16.74 5.43512 17.2207 5.06486 17.5993L5.05715 17.6072L4.9971 17.6671C4.90413 17.76 4.82998 17.8707 4.77965 17.9921C4.72933 18.1135 4.70343 18.2436 4.70343 18.375C4.70343 18.5064 4.72933 18.6365 4.77965 18.7579C4.82998 18.8793 4.90374 18.9896 4.99671 19.0825L4.9975 19.0833C5.09037 19.1763 5.20066 19.25 5.32206 19.3003C5.44346 19.3507 5.57359 19.3766 5.705 19.3766C5.83641 19.3766 5.96654 19.3507 6.08794 19.3003C6.20934 19.25 6.31963 19.1763 6.4125 19.0833L6.48069 19.0151C6.85921 18.6448 7.34 18.3965 7.861 18.302C8.37163 18.2095 8.89796 18.2689 9.37477 18.4725C9.86132 18.6581 10.2827 18.983 10.5859 19.407C10.8952 19.8395 11.0673 20.355 11.0797 20.8866L11.08 20.91V21C11.08 21.2652 11.1854 21.5196 11.3729 21.7071C11.5604 21.8946 11.8148 22 12.08 22C12.3452 22 12.5996 21.8946 12.7871 21.7071C12.9746 21.5196 13.08 21.2652 13.08 21V20.83L13.08 20.826C13.0821 20.3092 13.2352 19.8043 13.5206 19.3734C13.805 18.944 14.2083 18.6067 14.6812 18.4029C15.1643 18.1909 15.6998 18.1279 16.219 18.222C16.74 18.3165 17.2207 18.5649 17.5993 18.9351L17.6071 18.9429L17.6671 19.0029C17.76 19.0959 17.8707 19.17 17.9921 19.2203C18.1135 19.2707 18.2436 19.2966 18.375 19.2966C18.5064 19.2966 18.6365 19.2707 18.7579 19.2203C18.8793 19.17 18.9896 19.0963 19.0825 19.0033L19.0833 19.0025C19.1763 18.9096 19.25 18.7993 19.3003 18.6779C19.3507 18.5565 19.3766 18.4264 19.3766 18.295C19.3766 18.1636 19.3507 18.0335 19.3003 17.9121C19.25 17.7907 19.1763 17.6804 19.0833 17.5875L19.0151 17.5193C18.6448 17.1408 18.3965 16.66 18.302 16.139C18.2079 15.6198 18.2709 15.0843 18.4829 14.6012C18.6867 14.1283 19.024 13.725 19.4534 13.4406C19.8843 13.1552 20.3892 13.0021 20.906 13L20.91 13L21 13C21.2652 13 21.5196 12.8946 21.7071 12.7071C21.8946 12.5196 22 12.2652 22 12C22 11.7348 21.8946 11.4804 21.7071 11.2929C21.5196 11.1054 21.2652 11 21 11H20.83L20.826 11C20.3092 10.9979 19.8043 10.8448 19.3734 10.5594C18.9425 10.2741 18.6045 9.86896 18.4009 9.39393C18.3646 9.30938 18.3403 9.22042 18.3284 9.12961C18.1773 8.69798 18.14 8.23332 18.222 7.781C18.3165 7.26 18.5649 6.77925 18.9351 6.40073L18.9428 6.39285L19.0029 6.3329C19.0959 6.24002 19.17 6.12934 19.2203 6.00794C19.2707 5.88654 19.2966 5.75641 19.2966 5.625C19.2966 5.49359 19.2707 5.36346 19.2203 5.24206C19.17 5.12066 19.0963 5.01037 19.0033 4.9175L19.0025 4.91671C18.9096 4.82374 18.7993 4.74998 18.6779 4.69965C18.5565 4.64933 18.4264 4.62343 18.295 4.62343C18.1636 4.62343 18.0335 4.64933 17.9121 4.69965C17.7907 4.74998 17.6804 4.82374 17.5875 4.91671L17.5193 4.98491C17.1408 5.35516 16.66 5.60349 16.139 5.69796C15.6198 5.79211 15.0843 5.72908 14.6011 5.51701C14.1282 5.3132 13.7249 4.97601 13.4406 4.54661C13.1552 4.11572 13.0021 3.6108 13 3.09399L13 3.09V3C13 2.73478 12.8946 2.48043 12.7071 2.29289C12.5196 2.10536 12.2652 2 12 2ZM9.87868 0.87868C10.4413 0.316071 11.2044 0 12 0C12.7956 0 13.5587 0.316071 14.1213 0.87868C14.6839 1.44129 15 2.20435 15 3V3.0875C15.0008 3.21374 15.0383 3.33704 15.1081 3.44232C15.178 3.54801 15.2774 3.63092 15.3939 3.68086L15.4038 3.68508C15.5226 3.73752 15.6544 3.75322 15.7822 3.73005C15.9086 3.70713 16.0253 3.64728 16.1177 3.55811L16.1725 3.50329C16.4511 3.22436 16.782 3.00308 17.1462 2.85211C17.5104 2.70113 17.9008 2.62343 18.295 2.62343C18.6892 2.62343 19.0796 2.70113 19.4438 2.85211C19.808 3.00308 20.1389 3.22436 20.4175 3.50329C20.6961 3.78174 20.9171 4.11233 21.0679 4.47618C21.2189 4.84037 21.2966 5.23075 21.2966 5.625C21.2966 6.01925 21.2189 6.40963 21.0679 6.77382C20.917 7.13784 20.6959 7.46857 20.4171 7.7471C20.417 7.74724 20.4172 7.74697 20.4171 7.7471L20.3619 7.80231C20.2727 7.89468 20.2129 8.01142 20.19 8.13782C20.1668 8.26561 20.1824 8.39742 20.2349 8.51624C20.2631 8.58027 20.2845 8.64692 20.2988 8.71507C20.3461 8.78479 20.4068 8.84498 20.4777 8.89195C20.583 8.96167 20.7063 8.99921 20.8325 9H21C21.7957 9 22.5587 9.31607 23.1213 9.87868C23.6839 10.4413 24 11.2043 24 12C24 12.7957 23.6839 13.5587 23.1213 14.1213C22.5587 14.6839 21.7957 15 21 15H20.9125C20.7863 15.0008 20.663 15.0383 20.5577 15.1081C20.452 15.178 20.3691 15.2774 20.3191 15.3939L20.3149 15.4038C20.2625 15.5226 20.2468 15.6544 20.27 15.7822C20.2929 15.9086 20.3527 16.0253 20.4419 16.1177L20.4967 16.1725C20.4966 16.1724 20.4968 16.1726 20.4967 16.1725C20.7755 16.451 20.997 16.7822 21.1479 17.1462C21.2989 17.5104 21.3766 17.9008 21.3766 18.295C21.3766 18.6892 21.2989 19.0796 21.1479 19.4438C20.9969 19.808 20.7756 20.1389 20.4967 20.4175L19.79 19.71L20.4975 20.4167C20.2189 20.6956 19.888 20.9169 19.5238 21.0679C19.1596 21.2189 18.7692 21.2966 18.375 21.2966C17.9808 21.2966 17.5904 21.2189 17.2262 21.0679C16.8622 20.917 16.5314 20.6959 16.2529 20.4171C16.2528 20.417 16.253 20.4172 16.2529 20.4171L16.1977 20.3619C16.1053 20.2727 15.9886 20.2129 15.8622 20.19C15.7344 20.1668 15.6026 20.1824 15.4838 20.2349L15.474 20.2392C15.3574 20.2891 15.258 20.372 15.1881 20.4777C15.1183 20.583 15.0808 20.7063 15.08 20.8325V21C15.08 21.7957 14.7639 22.5587 14.2013 23.1213C13.6387 23.6839 12.8757 24 12.08 24C11.2843 24 10.5213 23.6839 9.95868 23.1213C9.39607 22.5587 9.08 21.7957 9.08 21V20.9244C9.07526 20.7972 9.03327 20.6741 8.95914 20.5704C8.88326 20.4644 8.77723 20.3836 8.65482 20.3385C8.63505 20.3313 8.61551 20.3234 8.59624 20.3149C8.47742 20.2624 8.34561 20.2468 8.21782 20.27C8.09142 20.2929 7.97467 20.3527 7.8823 20.4419L7.8275 20.4967C7.82737 20.4968 7.82763 20.4966 7.8275 20.4967C7.54896 20.7755 7.21784 20.997 6.85382 21.1479C6.48963 21.2989 6.09925 21.3766 5.705 21.3766C5.31075 21.3766 4.92037 21.2989 4.55618 21.1479C4.19233 20.9971 3.86174 20.7761 3.58329 20.4975C3.30436 20.2189 3.08308 19.888 2.93211 19.5238C2.78113 19.1596 2.70343 18.7692 2.70343 18.375C2.70343 17.9808 2.78113 17.5904 2.93211 17.2262C3.08308 16.862 3.30436 16.5311 3.58329 16.2525L3.63811 16.1977C3.72728 16.1053 3.78713 15.9886 3.81005 15.8622C3.83322 15.7344 3.81758 15.6026 3.76514 15.4838L3.76081 15.474C3.71087 15.3574 3.62801 15.258 3.52232 15.1881C3.41704 15.1183 3.29374 15.0808 3.1675 15.08H3C2.20435 15.08 1.44129 14.7639 0.87868 14.2013C0.316071 13.6387 0 12.8756 0 12.08C0 11.2844 0.316071 10.5213 0.87868 9.95868C1.44129 9.39607 2.20435 9.08 3 9.08H3.07564C3.20283 9.07526 3.32591 9.03327 3.42955 8.95914C3.53564 8.88326 3.61644 8.77723 3.66146 8.65482C3.66874 8.63505 3.67663 8.61551 3.68514 8.59624C3.73758 8.47742 3.75322 8.34561 3.73005 8.21782C3.70713 8.09142 3.64728 7.97468 3.5581 7.88231L3.50329 7.8275C3.22436 7.54888 3.00308 7.21802 2.85211 6.85382C2.70113 6.48963 2.62343 6.09925 2.62343 5.705C2.62343 5.31075 2.70113 4.92037 2.85211 4.55618C3.00301 4.19216 3.22415 3.86143 3.50289 3.58289C3.78143 3.30415 4.11216 3.08301 4.47618 2.93211C4.84037 2.78113 5.23075 2.70343 5.625 2.70343C6.01925 2.70343 6.40963 2.78113 6.77382 2.93211C7.13802 3.08308 7.46888 3.30436 7.7475 3.58329L7.80231 3.6381C7.89468 3.72728 8.01142 3.78713 8.13782 3.81005C8.26561 3.83322 8.39742 3.81758 8.51624 3.76514C8.58027 3.73687 8.64693 3.71549 8.71507 3.70122C8.78479 3.6539 8.84498 3.59323 8.89195 3.52232C8.96167 3.41704 8.99921 3.29374 9 3.1675V3C9 2.20435 9.31607 1.44129 9.87868 0.87868Z" fill="#8D8D8D"/>
</g>
<defs>
<clipPath id="clip0_437_2137">
<rect width="24" height="24" fill="white"/>
</clipPath>
</defs>
</symbol>


</defs>
</svg>
