<svg aria-hidden="true" style="position:absolute;width:0;height:0;overflow:hidden" xmlns="http://www.w3.org/2000/svg">
<defs>

<symbol id="globus" viewBox="0 0 24 24">
<path fill-rule="evenodd" clip-rule="evenodd" d="M12 3C7.02944 3 3 7.02944 3 12C3 16.9706 7.02944 21 12 21C16.9706 21 21 16.9706 21 12C21 7.02944 16.9706 3 12 3ZM1 12C1 5.92487 5.92487 1 12 1C18.0751 1 23 5.92487 23 12C23 18.0751 18.0751 23 12 23C5.92487 23 1 18.0751 1 12Z" fill="white"/>
<path fill-rule="evenodd" clip-rule="evenodd" d="M1 12C1 11.4477 1.44772 11 2 11H22C22.5523 11 23 11.4477 23 12C23 12.5523 22.5523 13 22 13H2C1.44772 13 1 12.5523 1 12Z" fill="white"/>
<path fill-rule="evenodd" clip-rule="evenodd" d="M12 1C12.2809 1 12.5489 1.11816 12.7383 1.32558C15.4031 4.24291 16.9175 8.02885 16.9998 11.9792C17.0001 11.9931 17.0001 12.0069 16.9998 12.0208C16.9175 15.9711 15.4031 19.7571 12.7383 22.6744C12.5489 22.8818 12.2809 23 12 23C11.7191 23 11.4511 22.8818 11.2617 22.6744C8.59689 19.7571 7.08251 15.9711 7.00022 12.0208C6.99993 12.0069 6.99993 11.9931 7.00022 11.9792C7.08251 8.02885 8.59689 4.24291 11.2617 1.32558C11.4511 1.11816 11.7191 1 12 1ZM9.00023 12C9.06877 15.0748 10.1263 18.0352 12 20.4492C13.8737 18.0352 14.9312 15.0748 14.9998 12C14.9312 8.92516 13.8737 5.96485 12 3.5508C10.1263 5.96485 9.06877 8.92516 9.00023 12Z" fill="white"/>
</symbol>

<symbol id="arrow__down-solid" viewBox="0 0 12 12">
<path d="M10.4997 2.50001L1.49971 2.50001C1.40859 2.50029 1.31928 2.52543 1.24138 2.5727C1.16348 2.61997 1.09994 2.68759 1.05762 2.76828C1.01529 2.84898 0.995771 2.93969 1.00116 3.03065C1.00655 3.12161 1.03665 3.20938 1.08821 3.28451L5.58821 9.78451C5.77471 10.054 6.22371 10.054 6.41071 9.78451L10.9107 3.28451C10.9628 3.20954 10.9933 3.12172 10.999 3.03061C11.0047 2.9395 10.9853 2.84857 10.943 2.7677C10.9006 2.68684 10.8369 2.61913 10.7587 2.57194C10.6806 2.52474 10.591 2.49986 10.4997 2.50001Z" fill="white"/>
</symbol>


<symbol id="traffic" viewBox="0 0 48 48">
<g clip-path="url(#clip0_276_2561)">
<path fill-rule="evenodd" clip-rule="evenodd" d="M34.7046 1.10988C35.0384 0.2239 36.0272 -0.223741 36.9132 0.110048L44.2847 2.88719C45.1681 3.22002 45.6162 4.20446 45.2869 5.08923L42.5441 12.4607C42.2139 13.348 41.2269 13.7997 40.3396 13.4695C39.4523 13.1393 39.0006 12.1523 39.3308 11.265L40.6351 7.75953L4.96139 23.9833C4.09956 24.3753 3.08317 23.9944 2.69122 23.1325C2.29927 22.2707 2.68019 21.2543 3.54202 20.8623L39.2124 4.64007L35.7045 3.31848C34.8185 2.98469 34.3708 1.99587 34.7046 1.10988ZM36.1473 19.8613C36.7903 19.2183 37.6624 18.8571 38.5717 18.8571H43.7146C44.6239 18.8571 45.496 19.2183 46.1389 19.8613C46.7819 20.5043 47.1431 21.3764 47.1431 22.2857V46.2857C47.1431 47.2325 46.3756 48 45.4289 48H36.8574C35.9106 48 35.1431 47.2325 35.1431 46.2857V22.2857C35.1431 21.3764 35.5044 20.5043 36.1473 19.8613ZM43.7146 22.2857H38.5717V44.5714H43.7146V22.2857ZM19.0045 25.0042C19.6475 24.3612 20.5195 24 21.4289 24H26.5717C27.481 24 28.3531 24.3612 28.9961 25.0042C29.6391 25.6472 30.0003 26.5192 30.0003 27.4285V46.2857C30.0003 47.2325 29.2328 48 28.286 48H19.7146C18.7678 48 18.0003 47.2325 18.0003 46.2857V27.4285C18.0003 26.5192 18.3615 25.6472 19.0045 25.0042ZM26.5717 27.4285H21.4289V44.5714H26.5717V27.4285ZM1.86163 30.147C2.50461 29.5041 3.37668 29.1428 4.28599 29.1428H9.42885C10.3382 29.1428 11.2102 29.5041 11.8532 30.147C12.4962 30.79 12.8574 31.6621 12.8574 32.5714V46.2857C12.8574 47.2325 12.0899 48 11.1431 48H2.57171C1.62493 48 0.857422 47.2325 0.857422 46.2857V32.5714C0.857422 31.6621 1.21864 30.79 1.86163 30.147ZM9.42885 32.5714H4.28599L4.28599 44.5714H9.42885V32.5714Z" fill="#0094FF"/>
</g>
<defs>
<clipPath id="clip0_276_2561">
<rect width="48" height="48" fill="white"/>
</clipPath>
</defs></symbol>

<symbol id="result" viewBox="0 0 48 48">
<g clip-path="url(#clip0_276_2555)">
<path d="M42.1295 43.0769L46.4857 43.0145C47.0435 43.0065 47.5 43.4565 47.5 44.0144V46.5C47.5 47.0523 47.0523 47.5 46.5 47.5H1.5C0.947715 47.5 0.5 47.0523 0.5 46.5V44.1377C0.5 44.0473 0.477461 43.9584 0.434424 43.8789V43.8789C0.238352 43.517 0.500443 43.0769 0.912112 43.0769H5.8705M42.1295 43.0769V8.38462C42.1295 7.83233 42.5772 7.38462 43.1295 7.38462H43.7792C44.6294 7.38462 45.0918 6.39106 44.5443 5.74065L40.4773 0.908911C40.0777 0.434199 39.3468 0.434198 38.9472 0.90891L34.8802 5.74065C34.3327 6.39106 34.7951 7.38462 35.6452 7.38462H36.6403C37.1926 7.38462 37.6403 7.83233 37.6403 8.38462V42.0769C37.6403 42.6292 37.1926 43.0769 36.6403 43.0769H33.1151C32.5628 43.0769 32.1151 42.6292 32.1151 42.0769V26.4359C32.1151 25.8836 32.5628 25.4359 33.1151 25.4359H33.1506C33.9876 25.4359 34.4543 24.4689 33.9334 23.8136L30.1353 19.036C29.7349 18.5323 28.9701 18.5324 28.5697 19.036L24.7717 23.8136C24.2508 24.4689 24.7174 25.4359 25.5545 25.4359H26.2806C26.8329 25.4359 27.2806 25.8836 27.2806 26.4359V42.0769C27.2806 42.6292 26.8329 43.0769 26.2806 43.0769H22.0647C21.5125 43.0769 21.0647 42.6292 21.0647 42.0769V17.8205C21.0647 17.2682 21.5125 16.8205 22.0647 16.8205H22.3692C23.2193 16.8205 23.6817 15.827 23.1342 15.1765L19.0893 10.3711C18.6824 9.88765 17.9347 9.89812 17.5415 10.3928L13.7213 15.1982C13.2004 15.8535 13.667 16.8205 14.5041 16.8205H15.2302C15.7825 16.8205 16.2302 17.2682 16.2302 17.8205V42.0769C16.2302 42.6292 15.7825 43.0769 15.2302 43.0769H13.1223H11.3597C10.8074 43.0769 10.3597 42.6292 10.3597 42.0769V35.4615C10.3597 34.9093 10.8074 34.4615 11.3597 34.4615H11.7405C12.5776 34.4615 13.0442 33.4945 12.5233 32.8393L8.72523 28.0616C8.32488 27.558 7.56002 27.558 7.15966 28.0616L3.3616 32.8393C2.8407 33.4945 3.30732 34.4615 4.14439 34.4615H4.8705C5.42279 34.4615 5.8705 34.9093 5.8705 35.4615V43.0769M42.1295 43.0769H5.8705" stroke="#0094FF" stroke-width="2"/>
</g>
<defs>
<clipPath id="clip0_276_2555">
<rect width="48" height="48" fill="white"/>
</clipPath>
</defs>     </symbol>

<symbol id="target" viewBox="0 0 48 48">
<g clip-path="url(#clip0_276_2545)">
<path fill-rule="evenodd" clip-rule="evenodd" d="M24.1676 1.65036C24.2332 2.59485 23.5208 3.41371 22.5763 3.47933C18.6473 3.75228 14.8793 5.14733 11.7199 7.49874C8.56046 9.85015 6.14243 13.0591 4.75308 16.7443C3.36372 20.4295 3.06143 24.4361 3.88213 28.288C4.70282 32.14 6.612 35.6754 9.38285 38.4742C12.1537 41.273 15.6697 43.2177 19.5132 44.077C23.3568 44.9364 27.3662 44.6744 31.0652 43.3221C34.7641 41.9699 37.9972 39.5842 40.3802 36.4486C42.7633 33.313 44.1961 29.5592 44.5086 25.6332C44.5837 24.6894 45.4096 23.9852 46.3534 24.0603C47.2972 24.1354 48.0014 24.9614 47.9263 25.9052C47.5618 30.4855 45.8902 34.8649 43.11 38.5232C40.3297 42.1814 36.5578 44.9647 32.2424 46.5423C27.9269 48.1199 23.2492 48.4256 18.7651 47.423C14.281 46.4204 10.179 44.1517 6.94633 40.8864C3.71368 37.6211 1.4863 33.4964 0.528822 29.0025C-0.428657 24.5085 -0.0759875 19.8342 1.54493 15.5348C3.16585 11.2354 5.98688 7.49163 9.67287 4.74831C13.3589 2.005 17.7549 0.377446 22.3386 0.0590015C23.2831 -0.00661485 24.102 0.705859 24.1676 1.65036Z" fill="#0094FF"/>
<path fill-rule="evenodd" clip-rule="evenodd" d="M38.1722 0.0622433C38.7674 0.227104 39.2279 0.699382 39.3777 1.29855L40.8425 7.15783L46.7018 8.62265C47.301 8.77245 47.7733 9.23295 47.9381 9.82815C48.103 10.4234 47.9349 11.0612 47.4982 11.4979L40.6411 18.3551C40.2153 18.7809 39.5973 18.952 39.0131 18.806L33.0976 17.3271L25.2125 25.2122C24.543 25.8817 23.4576 25.8817 22.7881 25.2122C22.1187 24.5428 22.1187 23.4573 22.7881 22.7879L30.6732 14.9028L29.1944 8.98724C29.0483 8.40306 29.2195 7.78508 29.6453 7.35929L36.5024 0.502143C36.9391 0.0654274 37.577 -0.102617 38.1722 0.0622433ZM33.9854 14.015L38.903 15.2444L42.9329 11.2145L39.0131 10.2346C38.3989 10.081 37.9193 9.60145 37.7658 8.98724L36.7859 5.06746L32.756 9.09733L33.9854 14.015ZM21.8252 13.8094C22.1704 14.691 21.7355 15.6855 20.8538 16.0306C19.5272 16.55 18.3509 17.3919 17.4314 18.4801C16.5119 19.5683 15.8781 20.8686 15.5874 22.2633C15.2967 23.658 15.3583 25.1032 15.7665 26.4682C16.1747 27.8331 16.9167 29.0748 17.9254 30.0809C18.9341 31.0871 20.1777 31.8259 21.5437 32.2306C22.9097 32.6353 24.3551 32.6931 25.749 32.3988C27.143 32.1045 28.4416 31.4674 29.5275 30.5451C30.6133 29.6228 31.4522 28.4443 31.9681 27.1164C32.311 26.2339 33.3044 25.7964 34.1869 26.1393C35.0694 26.4821 35.5068 27.4755 35.164 28.358C34.4416 30.2172 33.2673 31.867 31.7471 33.1582C30.2269 34.4495 28.4088 35.3414 26.4572 35.7534C24.5057 36.1654 22.4822 36.0845 20.5698 35.5179C18.6574 34.9513 16.9164 33.917 15.5042 32.5084C14.092 31.0999 13.0532 29.3615 12.4817 27.4506C11.9102 25.5396 11.824 23.5164 12.231 21.5638C12.6379 19.6111 13.5252 17.7908 14.8125 16.2672C16.0999 14.7437 17.7466 13.5651 19.604 12.838C20.4856 12.4929 21.4801 12.9278 21.8252 13.8094Z" fill="#0094FF"/>
</g>
<defs>
<clipPath id="clip0_276_2545">
<rect width="48" height="48" fill="white"/>
</clipPath>
</defs></symbol>

<symbol id="best" viewBox="0 0 48 48">
<path d="M24 2.34375C22.9131 2.34375 21.8438 3.54375 21.8438 5.25C21.8438 6.95625 22.9131 8.15625 24 8.15625C25.0869 8.15625 26.1562 6.95625 26.1562 5.25C26.1562 3.54375 25.0869 2.34375 24 2.34375ZM14.2546 2.62266L12.7454 3.37734C14.1603 6.20719 17.5613 8.70328 20.4505 10.3563L21.7813 27.6562H23.1562V18H24.8438V27.6562H26.2187L27.5495 10.3563C30.4387 8.70328 33.8397 6.20719 35.2546 3.37734L33.7454 2.62266C31.8788 5.42578 29.5369 7.23028 27.0578 8.03859C26.3729 9.12 25.2891 9.84375 24 9.84375C22.7109 9.84375 21.6272 9.12 20.9422 8.0385C18.4631 7.23038 16.1212 5.42578 14.2546 2.62266ZM15.8438 29.3438V38.3438H2.34375V45.6562H45.6562V42.8438H32.1562V29.3438H15.8438Z" fill="#0094FF"/>
</symbol>

<symbol id="control" viewBox="0 0 48 48">
<g clip-path="url(#clip0_276_2529)">
<path d="M35 22C27.832 22 22 27.832 22 35C22 42.168 27.832 48 35 48C42.168 48 48 42.168 48 35C48 27.832 42.168 22 35 22ZM35 45.5C28.936 45.5 24.5 41.064 24.5 35C24.5 28.936 28.936 24.5 35 24.5C41.064 24.5 45.5 28.936 45.5 35C45.5 41.064 41.064 45.5 35 45.5ZM40.878 31.098L42.28 32.524L35.368 39.322C34.934 39.758 34.348 40 33.724 40C33.1 40 32.516 39.758 32.074 39.314L28.374 35.728L29.764 34.29L33.476 37.89C33.674 38.088 33.79 38.068 33.956 37.904L40.878 31.098ZM24.046 22H8V20H26.994C25.94 20.564 24.952 21.236 24.046 22ZM24.046 48H0V5C0 2.242 2.242 0 5 0H31C33.758 0 36 2.242 36 5V18.03C35.668 18.01 35.336 18 35 18C34.664 18 33.832 17.98 33.5 18L33.476 5C33.476 3.346 32.654 3 31 3H5C3.346 3 3 3.346 3 5V45.5H22C22.612 46.22 23.324 47.39 24.048 48H24.046ZM28 12H8V10H28V12ZM8 30H18V32H8V30Z" fill="#0094FF"/>
</g>
<defs>
<clipPath id="clip0_276_2529">
<rect width="48" height="48" fill="white"/>
</clipPath>
</defs></symbol>

<symbol id="good" viewBox="0 0 36 36">
<path fill-rule="evenodd" clip-rule="evenodd" d="M23.4945 6.5115C20.8354 5.32666 17.8645 5.03313 15.0249 5.6747C12.1853 6.31627 9.62913 7.85856 7.73768 10.0716C5.84623 12.2845 4.72081 15.0497 4.52927 17.9545C4.33772 20.8594 5.09031 23.7483 6.6748 26.1905C8.25929 28.6327 10.5908 30.4973 13.3215 31.5062C16.0523 32.5151 19.036 32.6142 21.8277 31.7888C24.6194 30.9633 27.0695 29.2576 28.8126 26.926C30.5557 24.5943 31.4983 21.7617 31.5 18.8505V17.4714C31.5 16.6429 32.1716 15.9714 33 15.9714C33.8284 15.9714 34.5 16.6429 34.5 17.4714V18.8514C34.498 22.4095 33.3458 25.8724 31.2154 28.7222C29.085 31.572 26.0904 33.6568 22.6783 34.6657C19.2663 35.6745 15.6195 35.5534 12.2819 34.3203C8.94427 33.0872 6.09468 30.8083 4.15808 27.8234C2.22149 24.8385 1.30166 21.3075 1.53577 17.7571C1.76988 14.2067 3.14539 10.8272 5.45716 8.12239C7.76893 5.41762 10.8931 3.5326 14.3637 2.74846C17.8343 1.96432 21.4654 2.32307 24.7155 3.77122C25.4722 4.10839 25.8123 4.99515 25.4752 5.75186C25.138 6.50857 24.2512 6.84867 23.4945 6.5115Z" fill="white"/>
<path fill-rule="evenodd" clip-rule="evenodd" d="M34.0601 5.79037C34.6462 6.37587 34.6467 7.32561 34.0612 7.91169L19.0612 22.9267C18.7799 23.2082 18.3983 23.3665 18.0004 23.3666C17.6024 23.3667 17.2207 23.2086 16.9393 22.9272L12.4393 18.4272C11.8536 17.8414 11.8536 16.8917 12.4393 16.3059C13.0251 15.7201 13.9749 15.7201 14.5607 16.3059L17.9995 19.7447L31.9388 5.79143C32.5243 5.20535 33.4741 5.20488 34.0601 5.79037Z" fill="white"/>
</symbol>


<symbol id="arrow__down" viewBox="0 0 36 36">
<path fill-rule="evenodd" clip-rule="evenodd" d="M6.54202 17.2082C7.1371 16.6131 8.10192 16.6131 8.69701 17.2082L18.2862 26.7974L27.8754 17.2082C28.4704 16.6131 29.4353 16.6131 30.0303 17.2082C30.6254 17.8033 30.6254 18.7681 30.0303 19.3632L19.3637 30.0299C18.7686 30.625 17.8038 30.625 17.2087 30.0299L6.54202 19.3632C5.94693 18.7681 5.94693 17.8033 6.54202 17.2082Z" fill="white"/>
</symbol>

<symbol id="galochka" viewBox="0 0 36 36">
<path fill-rule="evenodd" clip-rule="evenodd" d="M13.8047 3.52861C14.0651 3.78896 14.0651 4.21107 13.8047 4.47141L6.4714 11.8047C6.21106 12.0651 5.78894 12.0651 5.5286 11.8047L2.19526 8.47141C1.93491 8.21107 1.93491 7.78896 2.19526 7.52861C2.45561 7.26826 2.87772 7.26826 3.13807 7.52861L6 10.3905L12.8619 3.52861C13.1223 3.26826 13.5444 3.26826 13.8047 3.52861Z" fill="blue"/>
</symbol>














</defs>
</svg>
